<?xml version="1.0" encoding="utf-8"?>
<!DOCTYPE svg PUBLIC "-//W3C//DTD SVG 1.1//EN" "http://www.w3.org/Graphics/SVG/1.1/DTD/svg11.dtd">
<svg version="1.1"
  xmlns="http://www.w3.org/2000/svg"
  xmlns:xlink="http://www.w3.org/1999/xlink" x="0px" y="0px" viewBox="0 0 1000 1000" enable-background="new 0 0 1000 1000" xml:space="preserve">
  <g transform="translate(0.000000,511.000000) scale(0.100000,-0.100000)">
    <path d="M4846.9,4183.7c-718.3-91.9-1404-394.6-1926.9-850.4c-302.6-266.2-578.4-632.1-752.7-1001.8c-88.1-187.7-193.4-484.6-193.4-545.9c0-21.1-34.5-26.8-162.8-26.8C903.1,1758.8,152.3,986.9,102.5,6.3c-24.9-507.6,136-936.6,482.7-1283.3c185.8-185.8,333.3-283.5,568.9-373.5c254.7-97.7,411.8-114.9,1089.8-114.9h611v151.3v153.2l-664.6,5.8c-748.9,9.6-775.7,13.4-1059.2,153.2C899.3-1187,671.4-959.1,560.3-731.2C439.6-484.1,412.8-363.4,414.7-60.8c1.9,222.2,9.6,283.5,53.6,427.1c137.9,455.8,434.8,808.3,831.3,984.5c170.5,74.7,331.4,101.5,637.8,101.5h279.7l23,130.2c13.4,70.9,53.6,218.4,90,325.6c229.8,691.4,735.5,1268,1423.1,1618.5c348.6,178.1,651.2,277.7,1045.8,340.9c229.8,38.3,837,32.6,1063-9.6c681.9-126.4,1210.5-396.5,1666.4-854.2c526.7-524.8,806.4-1160.7,837-1909.6l11.5-254.7h126.4c260.5,0,503.7-103.4,701-296.9c304.6-300.7,452-771.9,365.8-1164.5c-47.9-216.4-130.2-365.8-287.3-521c-159-157.1-277.7-226-482.7-277.7c-134.1-34.5-212.6-38.3-902.1-38.3h-752.7v-155.2v-153.2l819.8,5.8c917.5,7.6,917.5,7.6,1210.5,153.2c229.8,114.9,455.8,340.9,570.8,570.8c101.5,203,137.9,342.8,151.3,574.6c24.9,440.5-153.2,902.1-471.2,1220.1c-191.5,191.5-450.1,333.3-657,362l-90,11.5l-11.5,109.2c-86.2,812.1-377.3,1442.3-919.4,1984.3c-503.7,501.8-1120.5,814-1857.9,940.4C5651.3,4204.7,5097.8,4216.2,4846.9,4183.7z"/>
    <path d="M4731.9-150.8c-499.9-679.9-982.6-1335-1070.7-1455.7l-160.9-220.3l59.4-122.6l61.3-122.6l369.7-3.8l369.7-5.7l-126.4-823.6c-70.9-452-134.1-858.1-139.8-902.1l-13.4-78.6l124.5-53.6c68.9-28.7,136-47.9,149.4-42.1c13.4,3.8,467.4,611,1009.4,1346.5c542.1,737.4,1019,1384.8,1061.1,1440.4l76.6,103.4l-61.3,122.6l-61.3,122.6l-369.7,3.8l-369.7,5.7l139.8,900.2c76.6,496.1,137.9,902.1,139.8,902.1c0,1.9-32.6,17.2-70.9,32.6c-40.2,17.2-103.4,42.1-139.8,57.5l-67,28.7L4731.9-150.8z M5411.9-300.2c-99.6-655.1-101.5-668.5-67-718.3c93.8-130.2,99.6-132.2,425.2-137.9l298.8-5.7L5281.7-2229c-432.9-588-789.1-1064.9-791.1-1063c-3.8,3.8,40.2,306.5,97.7,674.2c99.6,655.1,101.5,668.4,67,718.3c-93.9,130.2-99.6,132.1-425.2,137.9l-298.8,5.7L4718.5-689c432.9,588,789.1,1064.9,791,1063C5513.4,370.2,5469.4,67.5,5411.9-300.2z"/>
  </g>
</svg>