<?xml version="1.0" encoding="utf-8"?>
<!DOCTYPE svg PUBLIC "-//W3C//DTD SVG 1.1//EN" "http://www.w3.org/Graphics/SVG/1.1/DTD/svg11.dtd">
<svg version="1.1"
  xmlns="http://www.w3.org/2000/svg"
  xmlns:xlink="http://www.w3.org/1999/xlink" x="0px" y="0px" viewBox="0 0 1000 1000" enable-background="new 0 0 1000 1000" xml:space="preserve">
  <g transform="translate(0.000000,511.000000) scale(0.100000,-0.100000)">
    <path d="M4846.9,3837c-718.3-91.9-1404-394.6-1926.9-850.4c-302.6-266.2-578.4-632.1-752.7-1001.7c-88.1-187.7-193.4-484.6-193.4-545.9c0-21.1-34.5-26.8-162.8-26.8c-907.9,0-1658.7-771.9-1708.5-1752.6c-24.9-507.6,136-936.6,482.7-1283.3c185.8-185.8,333.3-283.5,568.9-373.5c254.7-97.7,411.8-114.9,1089.8-114.9h611v151.3v153.2l-664.6,5.7c-748.9,9.6-775.7,13.4-1059.2,153.2c-231.8,114.9-459.7,342.8-570.8,570.8C439.6-830.7,412.8-710,414.7-407.4c1.9,222.2,9.6,283.5,53.6,427.1c137.9,455.8,434.8,808.3,831.3,984.5c170.5,74.7,331.4,101.5,637.8,101.5h279.7l23,130.2c13.4,70.9,53.6,218.4,90,325.6c229.8,691.4,735.5,1268,1423.1,1618.5c348.6,178.1,651.2,277.7,1045.8,340.9c229.8,38.3,837,32.6,1063-9.6c681.9-126.4,1210.5-396.5,1666.4-854.2c526.7-524.8,806.4-1160.7,837-1909.6l11.5-254.7h126.4c260.5,0,503.7-103.4,701-296.9c304.6-300.7,452-771.9,365.8-1164.5c-47.9-216.5-130.2-365.9-287.3-521c-159-157.1-277.7-226-482.7-277.7c-136-34.5-214.5-38.3-978.8-38.3h-829.3v-155.2V-2114l896.4,5.8c1003.7,7.7,992.2,7.7,1287.1,153.2c229.8,114.9,455.8,340.9,570.8,570.8c101.5,203,137.9,342.8,151.3,574.6c24.9,440.5-153.2,902.1-471.2,1220.1c-191.5,191.5-450.1,333.3-657,362l-90,11.5L8668,893.1c-86.2,812.1-377.3,1442.3-919.4,1984.3c-503.7,501.8-1120.5,814-1857.9,940.4C5651.3,3858.1,5097.8,3869.6,4846.9,3837z"/>
    <path d="M4904.3,460.2C4751.1,293.6,4527,10.1,4346.9-238.8c-599.5-833.2-906-1574.4-873.4-2112.7c36.4-616.7,453.9-1082.2,1116.7-1248.8c208.8-51.7,643.6-46,840.9,9.6c235.6,69,400.3,164.7,565,329.5c239.4,237.5,356.3,517.1,375.4,900.2c32.6,582.3-272,1367.6-879.1,2279.3c-124.5,185.8-469.3,651.2-482.7,651.2C5005.8,569.4,4958,519.6,4904.3,460.2z M5187.8-183.3c480.8-712.5,773.8-1329.3,856.2-1802.4c76.6-440.5-17.2-823.6-258.6-1064.9c-295-295-833.2-369.7-1323.5-185.8c-501.8,189.6-756.6,635.9-668.4,1176c80.4,503.8,434.8,1174.1,1011.3,1919.2C4904.3-12.9,4992.4,86.8,5000.1,81C5009.7,75.3,5093.9-43.5,5187.8-183.3z"/>
  </g>
</svg>