<?xml version="1.0" encoding="utf-8"?>
<!DOCTYPE svg PUBLIC "-//W3C//DTD SVG 1.1//EN" "http://www.w3.org/Graphics/SVG/1.1/DTD/svg11.dtd">
<svg version="1.1"
  xmlns="http://www.w3.org/2000/svg"
  xmlns:xlink="http://www.w3.org/1999/xlink" x="0px" y="0px" viewBox="0 0 1000 1000" enable-background="new 0 0 1000 1000" xml:space="preserve">
  <g transform="translate(0.000000,511.000000) scale(0.100000,-0.100000)">
    <path d="M4846.9,3898.7c-718.3-91.9-1404-394.6-1926.9-850.4c-302.6-266.2-578.4-632.1-752.7-1001.7c-88.1-187.7-193.4-484.6-193.4-545.9c0-21.1-34.5-26.8-162.8-26.8C903.1,1473.9,152.3,702,102.5-278.7c-24.9-507.6,136-936.6,482.7-1283.3c185.8-185.8,333.3-283.5,568.9-373.5c254.7-97.7,411.8-114.9,1089.8-114.9h611v151.3v153.2l-664.6,5.8c-748.9,9.6-775.7,13.4-1059.2,153.2c-231.8,114.9-459.7,342.8-570.8,570.8C439.6-769,412.8-648.4,414.7-345.7c1.9,222.2,9.6,283.5,53.6,427.1c137.9,455.9,434.8,808.3,831.3,984.5c170.5,74.7,331.4,101.5,637.8,101.5h279.7l23,130.2c13.4,70.9,53.6,218.4,90,325.6c229.8,691.4,735.5,1268,1423.1,1618.5c348.6,178.1,651.2,277.7,1045.8,340.9c229.8,38.3,837,32.6,1063-9.6c681.9-126.4,1210.5-396.5,1666.4-854.2c526.7-524.8,806.4-1160.7,837-1909.6l11.5-254.7h126.4c260.5,0,503.7-103.4,701-296.9c304.6-300.7,452-771.9,365.8-1164.5c-47.9-216.5-130.2-365.8-287.3-521c-159-157.1-277.7-226-482.7-277.7c-134.1-34.5-212.6-38.3-902.1-38.3h-752.7v-155.2v-153.2l819.8,5.8c917.5,7.7,917.5,7.7,1210.5,153.2c229.8,114.9,455.8,340.9,570.8,570.8c101.5,203,137.9,342.8,151.3,574.6c24.9,440.5-153.2,902.1-471.2,1220.1c-191.5,191.5-450.1,333.3-657,362l-90,11.5L8668,954.8c-86.2,812.1-377.3,1442.3-919.4,1984.3c-503.7,501.8-1120.5,814-1857.9,940.4C5651.3,3919.8,5097.8,3931.3,4846.9,3898.7z"/>
    <path d="M4540.4-211.7c-44.1-63.2-74.7-122.6-69-132.2c5.8-7.7,92-68.9,193.5-136l182-120.7v-494.2v-496.1h153.2h153.2v496.1v494.2l182,120.7c101.5,67,187.7,128.3,193.4,136c9.6,17.2-137.9,247.1-159,247.1c-7.7,0-93.9-53.6-191.5-116.9l-178.1-118.7L4822-213.6c-97.7,63.2-183.9,116.9-191.5,116.9C4624.7-96.7,4582.5-148.5,4540.4-211.7z"/>
    <path d="M3977.3-382.1c-5.7-17.2-23-107.3-42.1-203c-17.2-93.9-42.1-182-53.6-193.5c-11.5-11.5-97.7-36.4-193.4-53.6c-260.5-49.8-237.5-28.7-204.9-193.4c21.1-113,36.4-143.7,61.3-143.7c17.2,0,120.7,17.2,229.8,40.2l197.3,40.2l302.6-302.6l304.6-304.5l109.2,111.1l111.1,109.2l-304.6,304.5l-302.6,302.6l40.2,197.3c23,109.2,40.2,212.6,40.2,229.8c0,24.9-30.7,40.2-143.7,61.3C3998.4-353.4,3985-353.4,3977.3-382.1z"/>
    <path d="M5867.8-380.2c-162.8-32.6-157.1-13.4-99.6-291.1l40.2-197.3l-298.8-298.8c-164.7-164.7-298.8-308.4-298.8-317.9c0-24.9,176.2-201.1,201.1-201.1c9.6,0,153.2,134.1,317.9,298.8l298.8,298.8l197.3-40.2c109.2-23,212.6-40.2,229.8-40.2c24.9,0,40.2,30.6,61.3,143.7c32.6,164.7,55.5,143.7-204.9,193.4c-93.9,17.2-182,42.1-193.4,53.6c-11.5,11.5-36.4,103.4-55.6,203c-19.2,99.6-38.3,191.5-46,203C6009.5-359.2,5961.6-361.1,5867.8-380.2z"/>
    <path d="M3326.1-1427.9c-51.7-34.5-101.5-72.8-113-84.3c-13.4-13.4,19.2-76.6,101.5-203l120.7-182l-118.8-178.1c-63.2-97.7-116.8-183.9-116.8-191.5c0-21.1,229.8-168.6,247.1-159c7.7,5.8,69,92,136,193.5l120.7,182h494.2h496.1v153.2v153.2h-494.2h-496.1l-128.3,191.5c-68.9,105.4-132.1,191.5-141.7,189.6C3425.7-1362.8,3377.8-1391.5,3326.1-1427.9z"/>
    <path d="M6425.1-1552.4L6296.8-1744h-496.1h-494.2v-153.2v-153.2h496.1h494.2l120.7-182c67-101.5,128.3-187.7,136-193.5c17.2-9.6,247.1,137.9,247.1,159c0,7.6-53.6,93.8-116.8,191.5L6565-1897.2l118.8,178.1c63.2,97.7,116.8,183.9,116.8,191.5c0,11.5-220.3,166.6-237.5,166.6C6557.3-1360.9,6494.1-1447.1,6425.1-1552.4z"/>
    <path d="M4270.3-2406.7l-298.8-298.8l-197.3,40.2c-107.3,23-212.6,40.2-229.8,40.2c-24.9,0-40.2-30.7-61.3-143.7c-32.6-164.7-55.6-143.6,204.9-193.5c95.8-17.2,182-42.1,193.4-53.6c11.5-11.5,36.4-97.7,53.6-193.4c49.8-260.5,28.7-237.5,193.5-205c113,21.1,143.7,36.4,143.7,61.3c0,17.2-17.2,120.7-40.2,229.8l-40.2,197.3l298.8,298.8c164.7,164.7,298.8,308.4,298.8,318c0,24.9-176.2,201.1-201.1,201.1C4576.8-2107.9,4435.1-2242,4270.3-2406.7z"/>
    <path d="M5300.8-2199.8c-49.8-49.8-90-99.6-90-109.2c0-9.6,134.1-153.2,298.8-318l298.8-298.8l-40.2-197.3c-23-109.2-40.2-212.6-40.2-229.8c0-24.9,30.6-40.2,143.7-61.3c164.7-32.6,143.7-55.5,193.4,205c17.2,95.8,42.1,182,53.6,193.4c11.5,11.5,99.6,36.4,193.4,53.6c260.5,49.8,237.5,28.7,204.9,193.5c-21.1,113-36.4,143.7-61.3,143.7c-17.2,0-120.7-17.2-229.8-40.2l-197.3-40.2l-298.8,298.8c-164.7,164.7-308.4,298.8-317.9,298.8C5400.4-2107.9,5350.6-2150,5300.8-2199.8z"/>
    <path d="M4846.9-2699.7v-494.2l-182-120.7c-101.5-67-187.7-128.3-193.5-136c-9.6-17.2,137.9-247.1,159-247.1c7.7,0,93.8,53.6,191.5,116.8l178.1,118.8l178.1-118.8c97.7-63.2,183.9-116.8,191.5-116.8c21.1,0,168.6,229.8,159,247.1c-5.7,7.6-91.9,68.9-193.4,136l-182,120.7v494.2v496.1h-153.2h-153.2V-2699.7z"/>
  </g>
</svg>