<?xml version="1.0" encoding="utf-8"?>
<!DOCTYPE svg PUBLIC "-//W3C//DTD SVG 1.1//EN" "http://www.w3.org/Graphics/SVG/1.1/DTD/svg11.dtd">
<svg version="1.1"
  xmlns="http://www.w3.org/2000/svg"
  xmlns:xlink="http://www.w3.org/1999/xlink" x="0px" y="0px" viewBox="0 0 1000 1000" enable-background="new 0 0 1000 1000" xml:space="preserve">
  <g transform="translate(0.000000,512.000000) scale(0.100000,-0.100000)">
    <path d="M3318.4,4449.5v-459.8h153.3h153.3v459.8v459.8h-153.3h-153.3V4449.5z"/>
    <path d="M707.3,4300.1c-49.8-49.8-90-99.6-90-109.2c0-11.5,203.1-222.2,450.2-469.3l450.2-450.2l109.2,111.1l111.1,109.2l-450.2,450.2C1040.6,4188.9,828,4392,818.4,4392C806.9,4392,757.1,4349.9,707.3,4300.1z"/>
    <path d="M3126.8,3654.5c-434.9-69-846.7-281.6-1168.6-603.4c-431-431-660.9-1024.9-626.4-1618.8c13.4-220.3,49.8-371.6,128.4-540.2l55.6-120.7l-116.9-109.2C925.7,211.9,745.6-517.9,954.4-1142.5c132.2-396.5,454-735.6,839.1-885c308.4-118.8,132.2-114.9,3804.6-109.2l3342.9,5.7l134.1,44.1c400.4,134.1,655.2,392.7,779.7,789.3c59.4,195.4,61.3,584.3,0,808.4c-101.5,375.5-266.3,651.3-517.2,862.1c-105.4,90-319.9,199.2-425.3,216.5c-72.8,11.5-74.7,15.3-86.2,101.5c-65.1,530.7-195.4,885.1-473.2,1300.8c-168.6,252.9-482.8,572.8-743.3,756.7c-381.2,272-898.5,486.6-1375.5,574.7c-183.9,34.5-295,40.2-626.4,40.2c-358.2,0-427.2-5.7-632.2-49.8l-228-49.8l-97.7,63.2C4205.3,3621.9,3661.3,3738.8,3126.8,3654.5z M3780.1,3348c180.1-30.7,319.9-74.7,484.7-153.3l111.1-53.6l-226.1-116.9c-580.5-300.8-1007.7-710.7-1302.7-1251c-90-164.7-226-505.7-247.1-620.7l-13.4-69l-224.1-11.5c-182-7.7-256.7-21.1-404.2-69c-201.1-69-187.7-72.8-251,93.9c-120.7,314.2-90,775.9,76.6,1166.7c168.6,394.6,540.2,775.9,923.4,946.4C3055.9,3363.3,3421.8,3411.2,3780.1,3348z M6218.7,3012.7c645.6-126.4,1187.7-419.5,1624.5-877.4c425.3-448.3,647.5-965.5,678.1-1576.6l13.4-243.3l155.2-7.7c260.5-13.4,465.5-132.2,634.1-369.7c168.6-233.7,250.9-475.1,270.1-775.9c30.7-496.2-220.3-862.1-664.7-967.4c-107.3-24.9-544.1-28.7-3394.6-28.7c-3660.9,0-3427.2-9.6-3728,137.9C854.8-1228.7,1015.7,355.6,2054,715.8c105.4,36.4,176.3,44.1,452.1,51.7l327.6,7.7l23,128.3c13.4,69,51.7,214.6,88.1,321.8c325.7,975.1,1228,1689.6,2310.3,1825.7C5485,3079.8,5979.3,3060.6,6218.7,3012.7z"/>
    <path d="M100,1537.6v-153.3h459.8h459.8v153.3v153.3H559.8H100V1537.6z"/>
    <path d="M2958.2-2500.7c-42.1-70.9-302.7-524.9-578.5-1009.6s-519.2-908-540.2-942.5l-36.4-61.3l118.8-69c65.1-38.3,126.4-70.9,136-72.8c9.6-1.9,291.2,475.1,626.4,1059.4c595.8,1038.3,609.2,1063.2,570.9,1091.9c-21.1,15.3-80.5,51.7-130.3,80.5l-91.9,53.6L2958.2-2500.7z"/>
    <path d="M4508-2470c-32.6-55.5-308.4-536.4-613-1069c-544.1-948.3-553.6-967.4-513.4-996.2c21.1-15.3,80.5-51.7,130.3-80.5l92-53.6l613,1072.8l611.1,1070.9l-65.1,40.2c-36.4,21.1-95.8,55.6-132.2,78.5l-65.1,38.3L4508-2470z"/>
    <path d="M6040.6-2470c-32.5-55.5-308.4-536.4-613-1069c-544.1-948.3-553.6-967.4-513.4-996.2c21.1-15.3,80.5-51.7,130.3-80.5l92-53.6l613,1072.8l611.1,1070.9l-65.1,40.2c-36.4,21.1-95.8,55.6-132.2,78.5l-65.1,38.3L6040.6-2470z"/>
    <path d="M7573.1-2470c-32.5-55.5-308.4-536.4-613-1069c-544.1-948.3-553.6-967.4-513.4-996.2c21.1-15.3,80.5-51.7,130.3-80.5l92-53.6l613,1072.8l611.1,1070.9l-65.1,40.2c-36.4,21.1-95.8,55.6-132.2,78.5l-65.1,38.3L7573.1-2470z"/>
  </g>
</svg>