<?xml version="1.0" encoding="utf-8"?>
<!DOCTYPE svg PUBLIC "-//W3C//DTD SVG 1.1//EN" "http://www.w3.org/Graphics/SVG/1.1/DTD/svg11.dtd">
<svg version="1.1"
  xmlns="http://www.w3.org/2000/svg"
  xmlns:xlink="http://www.w3.org/1999/xlink" x="0px" y="0px" viewBox="0 0 1000 1000" enable-background="new 0 0 1000 1000" xml:space="preserve">
  <g transform="translate(0.000000,511.000000) scale(0.100000,-0.100000)">
    <path d="M2006.1,4273.7c-107.3-13.4-362.1-63.2-369.7-70.9c-3.8-5.7,19.2-47.9,53.6-95.8c291.2-425.3,323.8-931,84.3-1362.1c-88.1-159-339.1-394.6-505.7-475.1c-220.3-107.3-352.5-134.1-613-122.6c-180.1,7.7-251,19.2-387,67.1L100,2273.7v-137.9c1.9-306.5,74.7-622.6,212.6-911.9C433.3,969.1,546.4,812,751.3,608.9L918,444.2l-24.9-141.8C737.9-578.8,1249.4-1348.9,2092.3-1506c145.6-28.7,513.4-30.6,3505.7-26.8l3342.9,5.7L9075-1483c400.4,134.1,655.2,392.7,779.7,789.3c59.4,195.4,61.3,584.3,0,808.4c-101.5,375.5-266.3,651.3-517.2,862.1c-105.4,90-319.9,199.2-425.3,216.5c-72.8,11.5-74.7,15.3-86.2,101.5c-65.1,530.7-195.4,885.1-473.2,1300.8c-168.6,252.9-482.8,572.8-743.3,756.7c-749,532.6-1752.9,743.3-2659,559.4c-241.4-47.9-590-172.4-821.8-295l-218.4-113l-137.9,139.8c-329.5,333.3-745.2,546-1201.1,615C2402.7,4285.2,2140.2,4290.9,2006.1,4273.7z M2688.1,3925c321.8-82.4,634.1-260.5,850.6-478.9l114.9-116.9L3529.1,3220c-275.9-241.4-505.7-523-668.6-819.9C2760.9,2222,2623,1879,2600,1756.4l-13.4-69l-222.2-11.5c-237.6-11.5-411.9-53.7-588.1-143.7c-293.1-147.5-553.6-406.1-699.2-693.5l-44.1-84.3L910.3,884.8c-239.5,252.9-394.6,549.8-473.2,911.9l-9.6,47.9h300.8c287.4,1.9,308.4,3.8,467.4,61.3c816.1,287.4,1235.6,1137.9,965.5,1946.3l-44.1,134.1l212.6-11.5C2446.7,3969.1,2607.6,3946.1,2688.1,3925z M6218.7,3616.6c645.6-126.5,1187.7-419.5,1624.5-877.4c425.3-448.3,647.5-965.5,678.1-1576.6l13.4-243.3l155.2-7.7c260.5-13.4,465.5-132.2,634.1-369.7C9492.7,308.2,9575,66.8,9594.2-234c30.7-496.2-220.3-862.1-664.7-967.4c-107.3-24.9-544.1-28.7-3394.6-28.7c-3660.9,0-3427.2-9.6-3728,137.9C854.8-624.8,1015.7,959.5,2054,1319.7c105.4,36.4,176.3,44.1,452.1,51.7l327.6,7.7l23,128.3c13.4,69,51.7,214.6,88.1,321.9c325.7,975.1,1228,1689.6,2310.3,1825.7C5485,3683.6,5979.3,3664.5,6218.7,3616.6z"/>
    <path d="M3025.3-1781.9c-5.8-7.7-270.1-469.3-588.1-1028.7c-319.9-559.4-591.9-1034.5-607.3-1057.5c-26.8-38.3-21.1-44.1,103.5-118.8l130.3-76.6l28.7,40.2c15.3,23,293.1,503.8,616.9,1067c574.7,1007.7,586.2,1026.8,546,1055.5C3169-1837.4,3032.9-1768.5,3025.3-1781.9z"/>
    <path d="M4442.9-1983c-69-116.9-333.3-580.4-588.1-1028.7s-475.1-833.3-490.4-856.3c-24.9-40.2-21.1-46,103.4-118.8l128.4-76.6l28.7,40.2c15.3,23,293.1,503.8,616.9,1067c574.7,1007.7,586.2,1026.8,546,1055.5c-21.1,15.3-80.5,51.7-130.3,80.5l-91.9,53.6L4442.9-1983z"/>
    <path d="M5485-2839.3l-613-1072.8l128.3-74.7l128.4-76.6l28.7,40.2c15.3,23,293.1,503.8,616.9,1067c574.7,1007.7,586.2,1026.8,546,1055.5c-21.1,15.3-80.5,51.7-130.3,80.5l-92,53.6L5485-2839.3z"/>
    <path d="M7017.6-2839.3l-613-1072.8l128.3-74.7l128.4-76.6l28.7,40.2c15.3,23,293.1,503.8,616.9,1067c574.7,1007.7,586.2,1026.8,546,1055.5c-21.1,15.3-80.5,51.7-130.3,80.5l-92,53.6L7017.6-2839.3z"/>
  </g>
</svg>