<?xml version="1.0" encoding="utf-8"?>
<!DOCTYPE svg PUBLIC "-//W3C//DTD SVG 1.1//EN" "http://www.w3.org/Graphics/SVG/1.1/DTD/svg11.dtd">
<svg version="1.1"
  xmlns="http://www.w3.org/2000/svg"
  xmlns:xlink="http://www.w3.org/1999/xlink" x="0px" y="0px" viewBox="0 0 1000 1000" enable-background="new 0 0 1000 1000" xml:space="preserve">
  <g transform="translate(0.000000,512.000000) scale(0.100000,-0.100000)">
    <path d="M4737,4786.2c-931.2-1138.1-1791.5-2427.6-2333.7-3502.5c-607.4-1203.3-845-2130.6-754.9-2946.9c170.5-1565.4,1301-2808.9,2805.1-3081c266.3-47.9,825.8-47.9,1092.1,0c1059.6,191.6,1958.2,868,2442.9,1841.3c208.9,419.6,314.2,781.7,366,1264.6c122.6,1140-479,2699.7-1803,4680.9c-425.4,636.1-925.4,1314.4-1320.1,1791.5c-147.5,176.3-159,185.9-228,185.9C4932.5,5020,4922.9,5010.4,4737,4786.2z M5233.3,4336C6610.9,2567.5,7570.8,896.7,7908.1-316.1c170.5-609.3,197.4-1115.1,88.2-1657.4c-78.6-392.8-295.1-881.4-540.3-1226.2c-157.1-222.2-454.1-525-684-695.5c-191.6-143.7-624.6-367.9-856.5-442.6c-448.3-145.6-967.6-180.1-1442.8-97.7c-737.7,130.3-1440.9,576.7-1910.3,1216.7c-513.5,699.4-728.1,1605.6-580.6,2442.9c191.6,1074.9,891,2481.3,2055.9,4129c304.7,429.2,938.9,1260.7,963.8,1262.7C5009.1,4617.6,5112.6,4491.2,5233.3,4336z"/>
  </g>
</svg>