<?xml version="1.0" encoding="utf-8"?>
<!DOCTYPE svg PUBLIC "-//W3C//DTD SVG 1.1//EN" "http://www.w3.org/Graphics/SVG/1.1/DTD/svg11.dtd">
<svg version="1.1"
  xmlns="http://www.w3.org/2000/svg"
  xmlns:xlink="http://www.w3.org/1999/xlink" x="0px" y="0px" viewBox="0 0 1000 1000" enable-background="new 0 0 1000 1000" xml:space="preserve">
  <g transform="translate(0.000000,512.000000) scale(0.100000,-0.100000)">
    <path d="M3318.4,4104.7v-459.8h153.3h153.3v459.8v459.8h-153.3h-153.3V4104.7z"/>
    <path d="M707.3,3955.2c-49.8-49.8-90-99.6-90-109.2c0-11.5,203.1-222.2,450.2-469.3l450.2-450.2l109.2,111.1l111.1,109.2L1287.7,3597c-247.1,247.1-459.8,450.2-469.3,450.2C806.9,4047.2,757.1,4005,707.3,3955.2z"/>
    <path d="M3126.8,3309.6c-434.9-69-846.7-281.6-1168.6-603.4c-431-431-660.9-1024.9-626.4-1618.8c13.4-220.3,49.8-371.6,128.4-540.2l55.6-120.7l-116.9-109.2C925.7-132.9,745.6-862.7,954.4-1487.3c128.3-387,444.4-724.1,816.1-877.4c139.8-55.5,427.2-120.7,547.9-120.7h80.5v153.3v153.3h-67c-136,0-367.8,61.3-524.9,137.9C854.8-1573.5,1015.7,10.8,2054,371c105.4,36.4,176.3,44.1,452.1,51.7l327.6,7.7l23,128.3c13.4,69,51.7,214.6,88.1,321.8C3328,2028,4473.5,2777.1,5760.9,2719.6c816.1-36.4,1540.2-360.2,2082.4-929.1c425.3-448.3,647.5-965.5,678.1-1576.6l13.4-243.3l155.2-7.7c260.5-13.4,465.5-132.2,634.1-369.7c362.1-507.7,365.9-1197.3,9.6-1530.7c-145.6-137.9-398.5-239.5-588.1-241.4h-63.2V-2334v-157.1l132.2,13.4c507.7,46,888.9,352.5,1040.2,835.2c59.4,195.4,61.3,584.3,0,808.4C9753.2-458.5,9588.5-182.7,9337.5,28c-105.4,90-319.9,199.2-425.3,216.5c-72.8,11.5-74.7,15.3-86.2,101.5c-65.1,530.6-195.4,885.1-473.2,1300.8c-168.6,252.9-482.8,572.8-743.3,756.7c-381.2,272-898.5,486.6-1375.5,574.7c-183.9,34.5-295,40.2-626.4,40.2c-358.2,0-427.2-5.7-632.2-49.8l-228-49.8l-97.7,63.2C4205.3,3277.1,3661.3,3393.9,3126.8,3309.6z M3780.1,3003.1c180.1-30.6,319.9-74.7,484.7-153.3l111.1-53.6l-226.1-116.9c-578.5-298.8-1009.6-712.6-1302.7-1251c-90-164.7-226-505.7-247.1-620.7l-13.4-69l-224.1-11.5c-182-7.7-256.7-21.1-404.2-69c-201.1-69-187.7-72.8-251,93.9c-120.7,314.2-90,775.9,76.6,1166.7c168.6,394.6,540.2,775.9,923.4,946.4C3055.9,3018.4,3421.8,3066.3,3780.1,3003.1z"/>
    <path d="M100,1192.8v-153.3h459.8h459.8v153.3V1346H559.8H100V1192.8z"/>
    <path d="M2705.4-2332.1v-153.3h2835.2h2835.2v153.3v153.3H5540.6H2705.4V-2332.1z"/>
    <path d="M2705.4-3251.6v-153.3h2835.2h2835.2v153.3v153.3H5540.6H2705.4V-3251.6z"/>
    <path d="M2705.4-4171.2v-153.3h2835.2h2835.2v153.3v153.3H5540.6H2705.4V-4171.2z"/>
  </g>
</svg>