<?xml version="1.0" encoding="utf-8"?>
<!DOCTYPE svg PUBLIC "-//W3C//DTD SVG 1.1//EN" "http://www.w3.org/Graphics/SVG/1.1/DTD/svg11.dtd">
<svg version="1.1"
  xmlns="http://www.w3.org/2000/svg"
  xmlns:xlink="http://www.w3.org/1999/xlink" x="0px" y="0px" viewBox="0 0 1000 1000" enable-background="new 0 0 1000 1000" xml:space="preserve">
  <g transform="translate(0.000000,511.000000) scale(0.100000,-0.100000)">
    <path d="M2006.1,3929.8c-107.3-13.4-362.1-63.2-369.7-70.9c-3.8-5.8,19.2-47.9,53.6-95.8c291.2-425.3,323.8-931,84.3-1362.1c-88.1-159-339.1-394.6-505.7-475.1c-220.3-107.3-352.5-134.1-613-122.6c-180.1,7.7-251,19.2-387,67.1L100,1929.8v-137.9c1.9-306.5,74.7-622.6,212.6-911.9c120.7-254.8,233.7-411.9,438.7-614.9L918,100.3L893.1-41.4c-130.3-743.3,233.7-1454,877.4-1718.4c139.8-55.6,427.2-120.7,547.9-120.7h80.5v153.3v153.3h-67c-136,0-367.8,61.3-524.9,137.9C854.8-968.7,1015.7,615.6,2054,975.8c105.4,36.4,176.3,44.1,452.1,51.7l327.6,7.7l23,128.3c13.4,69,51.7,214.6,88.1,321.9C3328,2632.9,4473.5,3381.9,5760.9,3324.4c816.1-36.4,1540.2-360.2,2082.4-929.1c425.3-448.3,647.5-965.5,678.1-1576.6l13.4-243.3l155.2-7.7c260.5-13.4,465.5-132.2,634.1-369.7c362.1-507.7,365.9-1197.3,9.6-1530.7c-145.6-137.9-398.5-239.5-588.1-241.4h-63.2v-155.2v-157.1l132.2,13.4c507.7,46,888.9,352.5,1040.2,835.3c59.4,195.4,61.3,584.3,0,808.4c-101.5,375.5-266.3,651.3-517.2,862.1c-105.4,90-319.9,199.2-425.3,216.5c-72.8,11.5-74.7,15.3-86.2,101.5c-65.1,530.6-195.4,885-473.2,1300.8c-168.6,252.9-482.8,572.8-743.3,756.7c-749,532.6-1752.9,743.3-2659,559.4c-241.4-47.9-590-172.4-821.8-295l-218.4-113l-137.9,139.8c-329.5,333.3-745.2,546-1201.1,615C2402.7,3941.3,2140.2,3947,2006.1,3929.8z M2688.1,3581.1c321.8-82.4,634.1-260.5,850.6-478.9l114.9-116.8l-124.5-109.2c-275.9-241.4-505.7-523-668.6-819.9c-99.6-178.2-237.5-521.1-260.5-643.7l-13.4-69l-222.2-11.5c-237.6-11.5-411.9-53.7-588.1-143.7C1483.1,1040.9,1222.6,782.3,1077,495l-44.1-84.3L910.3,540.9c-239.5,252.9-394.6,549.8-473.2,911.9l-9.6,47.9h300.8c287.4,1.9,308.4,3.8,467.4,61.3c816.1,287.4,1235.6,1137.9,965.5,1946.3l-44.1,134.1l212.6-11.5C2446.7,3625.2,2607.6,3602.2,2688.1,3581.1z"/>
    <path d="M2705.4-1727.3v-153.3h2835.2h2835.2v153.3v153.3H5540.6H2705.4V-1727.3z"/>
    <path d="M2705.4-2646.8V-2800h2835.2h2835.2v153.3v153.3H5540.6H2705.4V-2646.8z"/>
    <path d="M2705.4-3566.3v-153.3h2835.2h2835.2v153.3v153.3H5540.6H2705.4V-3566.3z"/>
  </g>
</svg>