<?xml version="1.0" encoding="utf-8"?>
<!DOCTYPE svg PUBLIC "-//W3C//DTD SVG 1.1//EN" "http://www.w3.org/Graphics/SVG/1.1/DTD/svg11.dtd">
<svg version="1.1"
  xmlns="http://www.w3.org/2000/svg"
  xmlns:xlink="http://www.w3.org/1999/xlink" x="0px" y="0px" viewBox="0 0 1000 1000" enable-background="new 0 0 1000 1000" xml:space="preserve">
  <g transform="translate(0.000000,511.000000) scale(0.100000,-0.100000)">
    <path d="M2006.1,4265c-107.3-13.4-362.1-63.2-369.7-70.9c-3.8-5.7,19.2-47.9,53.6-95.8c291.2-425.3,323.8-931,84.3-1362.1c-88.1-159-339.1-394.6-505.7-475.1c-220.3-107.3-352.5-134.1-613-122.6c-180.1,7.7-251,19.2-387,67.1L100,2265v-137.9c1.9-306.5,74.7-622.6,212.6-911.9c120.7-254.8,233.7-411.9,438.7-614.9L918,435.5l-24.9-141.8c-155.2-881.2,356.3-1651.3,1199.2-1808.4c145.6-28.7,513.4-30.6,3505.7-26.8l3342.9,5.7l134.1,44.1c400.4,134.1,655.2,392.7,779.7,789.3c59.4,195.4,61.3,584.3,0,808.4c-101.5,375.5-266.3,651.3-517.2,862.1c-105.4,90-319.9,199.2-425.3,216.5c-72.8,11.5-74.7,15.3-86.2,101.5c-65.1,530.7-195.4,885.1-473.2,1300.8c-168.6,252.9-482.8,572.8-743.3,756.7c-749,532.6-1752.9,743.3-2659,559.4c-241.4-47.9-590-172.4-821.8-295l-218.4-113l-137.9,139.8c-329.5,333.3-745.2,546-1201.1,615C2402.7,4276.5,2140.2,4282.3,2006.1,4265z M2688.1,3916.4c321.8-82.4,634.1-260.5,850.6-478.9l114.9-116.9l-124.5-109.2c-275.9-241.4-505.7-523-668.6-819.9c-99.6-178.2-237.5-521.1-260.5-643.7l-13.4-69l-222.2-11.5c-237.6-11.5-411.9-53.7-588.1-143.7c-293.1-147.5-553.6-406.1-699.2-693.5l-44.1-84.3L910.3,876.2C670.9,1129,515.7,1426,437.2,1788l-9.6,47.9h300.8c287.4,1.9,308.4,3.8,467.4,61.3c816.1,287.4,1235.6,1137.9,965.5,1946.3l-44.1,134.1l212.6-11.5C2446.7,3960.4,2607.6,3937.5,2688.1,3916.4z M6218.7,3608c645.6-126.4,1187.7-419.5,1624.5-877.4c425.3-448.3,647.5-965.5,678.1-1576.6l13.4-243.3L8690,903c260.5-13.4,465.5-132.2,634.1-369.7c168.6-233.7,250.9-475.1,270.1-775.9c30.7-496.2-220.3-862.1-664.7-967.4c-107.3-24.9-544.1-28.7-3394.6-28.7c-3660.9,0-3427.2-9.6-3728,137.9C854.8-633.4,1015.7,950.9,2054,1311c105.4,36.4,176.3,44.1,452.1,51.7l327.6,7.7l23,128.3c13.4,69,51.7,214.6,88.1,321.9c325.7,975.1,1228,1689.6,2310.3,1825.7C5485,3675,5979.3,3655.8,6218.7,3608z"/>
    <path d="M2726.4-2459.1c-162.8-365.9-295-678.1-296.9-691.6c-1.9-21.1,251-151.3,266.3-134.1c7.7,9.6,603.4,1356.3,603.4,1364c0,9.6-185.8,97.7-243.3,114.9C3027.2-1796.2,2981.2-1886.3,2726.4-2459.1z"/>
    <path d="M4259-2459.1c-162.8-365.9-295-678.1-296.9-691.6c-1.9-21.1,251-151.3,266.3-134.1c7.7,9.6,603.4,1356.3,603.4,1364c0,9.6-185.8,97.7-243.3,114.9C4559.7-1796.2,4513.8-1886.3,4259-2459.1z"/>
    <path d="M5791.5-2459.1c-162.8-365.9-295-678.1-296.9-691.6c-1.9-21.1,251-151.3,266.3-134.1c7.7,9.6,603.4,1356.3,603.4,1364c0,9.6-185.8,97.7-243.3,114.9C6092.3-1796.2,6046.3-1886.3,5791.5-2459.1z"/>
    <path d="M7324.1-2459.1c-162.8-365.9-295-678.1-296.9-691.6c-1.9-21.1,251-151.3,266.3-134.1c7.7,9.6,603.4,1356.3,603.4,1364c0,9.6-185.8,97.7-243.3,114.9C7624.9-1796.2,7578.9-1886.3,7324.1-2459.1z"/>
    <path d="M2182.4-3779c-40.2-80.5-70.9-149.4-67.1-151.3c15.3-13.4,247.1-124.5,260.5-124.5c15.3,0,164.8,287.4,153.3,296.9c-15.3,13.4-247.1,124.5-260.5,124.5C2260.9-3633.4,2220.7-3698.5,2182.4-3779z"/>
    <path d="M3714.9-3779c-40.2-80.5-70.9-149.4-67-151.3c15.3-13.4,247.1-124.5,260.5-124.5c15.3,0,164.8,287.4,153.3,296.9c-15.3,13.4-247.1,124.5-260.5,124.5C3793.5-3633.4,3753.2-3698.5,3714.9-3779z"/>
    <path d="M5247.5-3779c-40.2-80.5-70.9-149.4-67-151.3c15.3-13.4,247.1-124.5,260.5-124.5c15.3,0,164.8,287.4,153.3,296.9c-15.3,13.4-247.1,124.5-260.5,124.5C5326-3633.4,5285.8-3698.5,5247.5-3779z"/>
    <path d="M6780-3779c-40.2-80.5-70.9-149.4-67.1-151.3c15.3-13.4,247.1-124.5,260.5-124.5c15.3,0,164.8,287.4,153.3,296.9c-15.3,13.4-247.1,124.5-260.5,124.5C6858.6-3633.4,6818.4-3698.5,6780-3779z"/>
  </g>
</svg>