<?xml version="1.0" encoding="utf-8"?>
<!DOCTYPE svg PUBLIC "-//W3C//DTD SVG 1.1//EN" "http://www.w3.org/Graphics/SVG/1.1/DTD/svg11.dtd">
<svg version="1.1"
  xmlns="http://www.w3.org/2000/svg"
  xmlns:xlink="http://www.w3.org/1999/xlink" x="0px" y="0px" viewBox="0 0 1000 1000" enable-background="new 0 0 1000 1000" xml:space="preserve">
  <g transform="translate(0.000000,512.000000) scale(0.100000,-0.100000)">
    <path d="M3318.4,4439.9v-459.8h153.3h153.3v459.8v459.8h-153.3h-153.3V4439.9z"/>
    <path d="M707.3,4290.5c-49.8-49.8-90-99.6-90-109.2c0-11.5,203.1-222.2,450.2-469.3l450.2-450.2l109.2,111.1l111.1,109.2l-450.2,450.2c-247.1,247.1-459.8,450.2-469.3,450.2C806.9,4382.4,757.1,4340.3,707.3,4290.5z"/>
    <path d="M3126.8,3644.9c-434.9-69-846.7-281.6-1168.6-603.4c-431-431-660.9-1024.9-626.4-1618.8c13.4-220.3,49.8-371.6,128.4-540.2l55.6-120.7l-116.9-109.2C925.7,202.4,745.6-527.5,954.4-1152c132.2-396.5,454-735.6,839.1-885c308.4-118.8,132.2-114.9,3804.6-109.2l3342.9,5.7l134.1,44.1c400.4,134.1,655.2,392.7,779.7,789.3c59.4,195.4,61.3,584.3,0,808.4c-101.5,375.5-266.3,651.3-517.2,862.1c-105.4,90-319.9,199.2-425.3,216.5c-72.8,11.5-74.7,15.3-86.2,101.5c-65.1,530.7-195.4,885.1-473.2,1300.8c-168.6,252.9-482.8,572.8-743.3,756.7c-381.2,272-898.5,486.6-1375.5,574.7c-183.9,34.5-295,40.2-626.4,40.2c-358.2,0-427.2-5.7-632.2-49.8l-228-49.8l-97.7,63.2C4205.3,3612.3,3661.3,3729.2,3126.8,3644.9z M3780.1,3338.4c180.1-30.7,319.9-74.7,484.7-153.3l111.1-53.6l-226.1-116.9c-580.5-300.8-1007.7-710.7-1302.7-1251c-90-164.7-226-505.7-247.1-620.7l-13.4-69l-224.1-11.5c-182-7.7-256.7-21.1-404.2-69c-201.1-69-187.7-72.8-251,93.9c-120.7,314.2-90,775.9,76.6,1166.7c168.6,394.6,540.2,775.9,923.4,946.4C3055.9,3353.7,3421.8,3401.6,3780.1,3338.4z M6218.7,3003.1c645.6-126.4,1187.7-419.5,1624.5-877.4c425.3-448.3,647.5-965.5,678.1-1576.6l13.4-243.3l155.2-7.7c260.5-13.4,465.5-132.2,634.1-369.7c168.6-233.7,250.9-475.1,270.1-775.8c30.7-496.2-220.3-862.1-664.7-967.4c-107.3-24.9-544.1-28.7-3394.6-28.7c-3660.9,0-3427.2-9.6-3728,137.9C854.8-1238.2,1015.7,346,2054,706.2c105.4,36.4,176.3,44.1,452.1,51.7l327.6,7.7l23,128.3c13.4,69,51.7,214.6,88.1,321.8c325.7,975.1,1228,1689.6,2310.3,1825.7C5485,3070.2,5979.3,3051,6218.7,3003.1z"/>
    <path d="M100,1528v-153.3h459.8h459.8V1528v153.3H559.8H100V1528z"/>
    <path d="M2726.4-3063.9c-162.8-365.9-295-678.1-296.9-691.6c-1.9-21.1,251-151.3,266.3-134.1c7.7,9.6,603.4,1356.3,603.4,1364c0,9.6-185.8,97.7-243.3,114.9C3027.2-2401.1,2981.2-2491.1,2726.4-3063.9z"/>
    <path d="M4259-3063.9c-162.8-365.9-295-678.1-296.9-691.6c-1.9-21.1,251-151.3,266.3-134.1c7.7,9.6,603.4,1356.3,603.4,1364c0,9.6-185.8,97.7-243.3,114.9C4559.7-2401.1,4513.8-2491.1,4259-3063.9z"/>
    <path d="M5791.5-3063.9c-162.8-365.9-295-678.1-296.9-691.6c-1.9-21.1,251-151.3,266.3-134.1c7.7,9.6,603.4,1356.3,603.4,1364c0,9.6-185.8,97.7-243.3,114.9C6092.3-2401.1,6046.3-2491.1,5791.5-3063.9z"/>
    <path d="M7324.1-3063.9c-162.8-365.9-295-678.1-296.9-691.6c-1.9-21.1,251-151.3,266.3-134.1c7.7,9.6,603.4,1356.3,603.4,1364c0,9.6-185.8,97.7-243.3,114.9C7624.9-2401.1,7578.9-2491.1,7324.1-3063.9z"/>
    <path d="M2182.4-4383.8c-40.2-80.5-70.9-149.4-67.1-151.3c15.3-13.4,247.1-124.5,260.5-124.5c15.3,0,164.8,287.4,153.3,296.9c-15.3,13.4-247.1,124.5-260.5,124.5C2260.9-4238.2,2220.7-4303.4,2182.4-4383.8z"/>
    <path d="M3714.9-4383.8c-40.2-80.5-70.9-149.4-67-151.3c15.3-13.4,247.1-124.5,260.5-124.5c15.3,0,164.8,287.4,153.3,296.9c-15.3,13.4-247.1,124.5-260.5,124.5C3793.5-4238.2,3753.2-4303.4,3714.9-4383.8z"/>
    <path d="M5247.5-4383.8c-40.2-80.5-70.9-149.4-67-151.3c15.3-13.4,247.1-124.5,260.5-124.5c15.3,0,164.8,287.4,153.3,296.9c-15.3,13.4-247.1,124.5-260.5,124.5C5326-4238.2,5285.8-4303.4,5247.5-4383.8z"/>
    <path d="M6780-4383.8c-40.2-80.5-70.9-149.4-67.1-151.3c15.3-13.4,247.1-124.5,260.5-124.5c15.3,0,164.8,287.4,153.3,296.9c-15.3,13.4-247.1,124.5-260.5,124.5C6858.6-4238.2,6818.4-4303.4,6780-4383.8z"/>
  </g>
</svg>