<?xml version="1.0" encoding="utf-8"?>
<!DOCTYPE svg PUBLIC "-//W3C//DTD SVG 1.1//EN" "http://www.w3.org/Graphics/SVG/1.1/DTD/svg11.dtd">
<svg version="1.1"
  xmlns="http://www.w3.org/2000/svg"
  xmlns:xlink="http://www.w3.org/1999/xlink" x="0px" y="0px" viewBox="0 0 1000 1000" enable-background="new 0 0 1000 1000" xml:space="preserve">
  <g transform="translate(0.000000,511.000000) scale(0.100000,-0.100000)">
    <path d="M4846.9,4636.1c-718.3-91.9-1404-394.6-1926.9-850.4c-302.6-266.3-578.4-632.1-752.7-1001.8c-88.1-187.7-193.4-484.6-193.4-545.9c0-21.1-34.5-26.8-162.8-26.8c-907.9,0-1658.7-771.9-1708.5-1752.6C77.6-48.8,238.5-477.9,585.2-824.6C771-1010.4,918.4-1108,1154-1198.1c312.2-120.7,130.2-116.8,4056.7-111.1c4014.6,5.7,3639.2-7.7,3964.8,153.2c229.8,114.9,455.8,340.9,570.8,570.8c101.5,203,137.9,342.8,151.3,574.6c24.9,440.5-153.2,902.1-471.2,1220.1c-191.5,191.5-450.1,333.3-657,362l-90,11.5l-11.5,109.2c-86.2,812.1-377.3,1442.3-919.4,1984.3c-503.7,501.8-1120.5,814-1857.9,940.4C5651.3,4657.2,5097.8,4668.7,4846.9,4636.1z M5871.6,4308.6c666.5-120.7,1202.8-396.5,1656.8-852.3c526.7-524.8,806.4-1160.7,837-1909.6l11.5-254.7h126.4c455.8,0,858.1-325.6,1026.6-831.3c99.6-300.7,80.4-626.3-51.7-896.4c-80.4-160.9-291.1-371.6-452-452c-258.6-126.4-21.1-120.7-3949.5-114.9c-3993.5,5.7-3620-7.7-3945.7,153.2C899.3-734.6,671.4-506.6,560.3-278.7C439.6-31.6,412.8,89.1,414.7,391.7c1.9,222.2,9.6,283.5,53.6,427.1c137.9,455.8,434.8,808.3,831.3,984.5c170.5,74.7,331.4,101.5,637.8,101.5h279.7l23,130.2c13.4,70.9,53.6,218.4,90,325.6c229.8,691.4,735.5,1268,1423.1,1618.5c356.3,182,689.5,291.1,1045.8,337.1c84.3,11.5,180,24.9,210.7,28.7C5132.2,4362.2,5706.9,4337.3,5871.6,4308.6z"/>
    <path d="M1724.8-2692.1c-204.9-453.9-375.4-831.3-379.2-840.8c-5.8-15.3,262.4-145.6,272-134.1c5.8,7.7,737.4,1616.6,752.8,1656.8c5.7,19.2-218.4,141.7-260.5,141.7C2104.1-1868.4,1929.8-2240,1724.8-2692.1z"/>
    <path d="M3257.1-2692.1c-204.9-453.9-375.4-831.3-379.2-840.8c-5.8-15.3,262.4-145.6,272-134.1c5.8,7.7,737.4,1616.6,752.8,1656.8c5.7,19.2-218.4,141.7-260.5,141.7C3636.4-1868.4,3462.1-2240,3257.1-2692.1z"/>
    <path d="M4789.4-2692.1c-204.9-453.9-375.4-831.3-379.2-840.8c-5.8-15.3,262.4-145.6,272-134.1c5.8,7.7,737.4,1616.6,752.8,1656.8c5.7,19.2-218.4,141.7-260.5,141.7C5168.6-1868.4,4994.4-2240,4789.4-2692.1z"/>
    <path d="M6321.7-2692.1c-204.9-453.9-375.4-831.3-379.2-840.8c-5.8-15.3,262.4-145.6,272-134.1c5.7,7.7,737.4,1616.6,752.7,1656.8c5.7,19.2-218.4,141.7-260.5,141.7C6700.9-1868.4,6526.6-2240,6321.7-2692.1z"/>
    <path d="M7857.8-2682.5c-203-446.3-373.5-823.6-379.2-838.9c-5.8-17.2,34.5-46,126.4-88.1c74.7-34.5,139.8-61.3,141.7-57.5c5.7,7.7,737.4,1616.6,752.7,1656.8c5.7,19.2-218.4,141.7-260.5,141.7C8233.2-1868.4,8060.8-2234.3,7857.8-2682.5z"/>
    <path d="M952.9-4159.2c-40.2-80.4-70.9-149.4-67-151.3C901.2-4324,1133-4435,1146.4-4435c15.3,0,164.7,287.3,153.2,296.9c-15.3,13.4-247.1,124.5-260.5,124.5C1031.5-4013.7,991.2-4078.8,952.9-4159.2z"/>
    <path d="M2485.2-4159.2c-40.2-80.4-70.9-149.4-67-151.3c15.3-13.4,247.1-124.5,260.5-124.5c15.3,0,164.7,287.3,153.2,296.9c-15.3,13.4-247.1,124.5-260.5,124.5C2563.7-4013.7,2523.5-4078.8,2485.2-4159.2z"/>
    <path d="M4017.5-4159.2c-40.2-80.4-70.9-149.4-67-151.3c15.3-13.4,247.1-124.5,260.5-124.5c15.3,0,164.7,287.3,153.2,296.9c-15.3,13.4-247.1,124.5-260.5,124.5C4096-4013.7,4055.8-4078.8,4017.5-4159.2z"/>
    <path d="M5549.8-4159.2c-40.2-80.4-70.9-149.4-67-151.3c15.3-13.4,247.1-124.5,260.5-124.5c15.3,0,164.7,287.3,153.2,296.9c-15.3,13.4-247.1,124.5-260.5,124.5C5628.3-4013.7,5588.1-4078.8,5549.8-4159.2z"/>
    <path d="M7082.1-4159.2c-40.2-80.4-70.9-149.4-67-151.3c15.3-13.4,247.1-124.5,260.5-124.5c15.3,0,164.7,287.3,153.2,296.9c-15.3,13.4-247.1,124.5-260.5,124.5C7160.6-4013.7,7120.4-4078.8,7082.1-4159.2z"/>
  </g>
</svg>