<?xml version="1.0" encoding="utf-8"?>
<!DOCTYPE svg PUBLIC "-//W3C//DTD SVG 1.1//EN" "http://www.w3.org/Graphics/SVG/1.1/DTD/svg11.dtd">
<svg version="1.1"
  xmlns="http://www.w3.org/2000/svg"
  xmlns:xlink="http://www.w3.org/1999/xlink" x="0px" y="0px" viewBox="0 0 1000 1000" enable-background="new 0 0 1000 1000" xml:space="preserve">
  <g transform="translate(0.000000,511.000000) scale(0.100000,-0.100000)">
    <path d="M5822,4918.6c-31.1-52.5-836.6-1309.3-1787.9-2797.6L2304.5-583.3l64.2-116.7l64.2-116.7l984.4-5.8c768.5-3.9,984.4-9.7,984.4-29.2c0-11.7-231.5-877.4-513.6-1920.2l-511.7-1896.9l132.3-68.1c116.7-58.4,138.1-64.2,161.5-38.9c15.6,15.5,875.5,1202.3,1910.5,2636.1c1035,1433.8,1933.8,2678.9,1998,2768.4l116.7,163.4l-60.3,124.5l-62.3,124.5l-998,3.9l-998,5.8l295.7,1926c163.4,1058.3,293.8,1928,291.8,1929.9c-5.8,7.8-264.6,103.1-274.3,103.1C5884.2,5010,5853.1,4969.1,5822,4918.6z M5501,2595.6c-134.2-871.6-249-1607-252.9-1634.2c-9.7-38.9,5.8-70,68.1-140.1l81.7-91.4l931.9-3.9l931.9-5.8L5596.3-1585.2C4681.9-2853.7,3923.2-3898.4,3913.4-3910c-11.7-11.7-11.7,3.9,0,38.9c11.7,33.1,194.6,715.9,410.5,1517.5c215.9,803.5,402.7,1500,418.3,1550.5l27.2,91.4l-77.8,97.3l-79.8,99.2l-941.6,3.9l-943.6,5.8l1501.9,2350.1c824.9,1291.8,1503.8,2346.3,1507.8,2342.4C5740.3,4183.2,5633.2,3467.2,5501,2595.6z"/>
  </g>
</svg>