<?xml version="1.0" encoding="utf-8"?>
<!DOCTYPE svg PUBLIC "-//W3C//DTD SVG 1.1//EN" "http://www.w3.org/Graphics/SVG/1.1/DTD/svg11.dtd">
<svg version="1.1"
  xmlns="http://www.w3.org/2000/svg"
  xmlns:xlink="http://www.w3.org/1999/xlink" x="0px" y="0px" viewBox="0 0 1000 1000" enable-background="new 0 0 1000 1000" xml:space="preserve">
  <g transform="translate(0.000000,511.000000) scale(0.100000,-0.100000)">
    <path d="M4751.2,3441.3c0-9.6,32.5-95.7,74.6-189.5c126.3-292.9,164.6-472.8,162.7-792.4c0-333-40.2-524.5-168.4-796.3C4711,1431.6,4600,1272.7,4435.4,1110c-162.7-164.6-321.6-275.6-553.2-384.7c-424.9-201-943.6-231.6-1395.3-82.3c-65.1,21.1-204.8,82.3-308.2,134c-137.8,70.8-193.3,90-204.8,72.7c-23-38.3-42.1-453.6-28.7-652.7c23-346.4,124.4-754.1,268-1071.9l49.8-111H1181.4H100V-1139v-153.1h4900h4900v153.1v153.1H8818.6H7739l65.1,155c86.1,199.1,172.3,478.5,214.4,696.7c51.7,266,45.9,813.5-9.6,1094.8C7762,2201,6808.8,3156.2,5580,3397.3C5352.2,3443.3,4751.2,3473.9,4751.2,3441.3z M5677.6,3062.4c493.8-126.3,901.5-361.8,1274.8-735c392.4-392.4,641.2-867.1,759.9-1437.5c49.8-245,45.9-788.6-9.6-1039.3c-53.6-245-122.5-442.2-225.8-658.4l-84.2-178H5000H2607.4l-84.2,178c-157,321.6-246.9,662.3-271.8,1016.4c-13.4,179.9-11.5,189.5,23,179.9c19.1-5.7,111-32.5,201-59.3c541.7-160.8,1123.5-99.5,1642.3,168.4c214.4,112.9,379,237.3,568.5,434.5c185.7,193.3,290.9,346.4,401.9,578c212.5,449.8,271.8,983.8,160.8,1443.2c-21,88.1-38.3,166.5-38.3,174.2C5210.5,3150.4,5472.8,3114,5677.6,3062.4z"/>
    <path d="M4364.5-2442.5c-287.1-294.8-524.4-543.6-528.3-549.3c-1.9-7.7,40.2-65.1,93.8-126.3l99.5-111l470.9,470.9c260.3,258.4,480.4,470.9,490,470.9c11.5,0,231.6-212.5,493.8-472.8l474.7-474.7l105.3,109.1c59.3,61.3,103.4,118.7,99.5,128.2c-1.9,9.6-241.2,260.3-528.3,555.1L5111-1904.6h-111h-111L4364.5-2442.5z"/>
  </g>
</svg>