<?xml version="1.0" encoding="utf-8"?>
<!DOCTYPE svg PUBLIC "-//W3C//DTD SVG 1.1//EN" "http://www.w3.org/Graphics/SVG/1.1/DTD/svg11.dtd">
<svg version="1.1"
  xmlns="http://www.w3.org/2000/svg"
  xmlns:xlink="http://www.w3.org/1999/xlink" x="0px" y="0px" viewBox="0 0 1000 1000" enable-background="new 0 0 1000 1000" xml:space="preserve">
  <g transform="translate(0.000000,511.000000) scale(0.100000,-0.100000)">
    <path d="M4751.2,3465.3c0-9.6,32.5-95.7,74.6-189.5c126.3-292.9,164.6-472.8,162.7-792.4c0-333-40.2-524.5-168.4-796.3C4711,1455.5,4600,1296.7,4435.4,1134c-162.7-164.6-321.6-275.6-553.2-384.7c-424.9-201-943.6-231.6-1395.3-82.3c-65.1,21.1-204.8,82.3-308.2,134c-137.8,70.8-193.3,90-204.8,72.7c-23-38.3-42.1-453.6-28.7-652.7c23-346.4,124.4-754.1,268-1071.9l49.8-111H1181.4H100v-153.1v-153.1h4900h4900v153.1v153.1H8818.6H7739l65.1,155c86.1,199.1,172.3,478.5,214.4,696.7c51.7,266,45.9,813.5-9.6,1094.8C7762,2225,6808.8,3180.1,5580,3421.3C5352.2,3467.2,4751.2,3497.8,4751.2,3465.3z M5650.8,3094c1048.9-258.4,1837.5-1091,2061.4-2180.1c49.8-245,45.9-788.6-9.6-1039.3c-53.6-245-122.5-442.2-225.8-658.4l-84.2-178H5000H2607.4l-84.2,178c-157,321.6-246.9,662.3-271.8,1016.4c-13.4,179.9-11.5,189.5,23,179.9c19.1-5.7,111-32.5,201-59.3c541.7-160.8,1123.5-99.5,1642.3,168.4c214.4,112.9,379,237.3,568.5,434.5c185.7,193.3,290.9,346.4,401.9,578c212.5,449.8,271.8,983.8,160.8,1443.2c-21,88.1-38.3,166.5-38.3,174.2C5210.5,3172.4,5463.2,3139.9,5650.8,3094z"/>
    <path d="M3930-2043.4c-55.5-59.3-97.6-112.9-93.8-122.5c3.8-9.6,241.2-260.3,528.3-555.1l524.5-537.9h111h111l524.5,537.9c287.1,294.8,524.4,543.6,528.3,551.3c1.9,7.6-40.2,63.2-93.8,122.5l-97.6,111l-476.6-470.9c-260.3-258.4-480.4-468.9-490-468.9c-7.7,0-225.9,210.5-484.3,468.9s-474.7,468.9-480.4,468.9C4035.3-1938.1,3983.6-1986,3930-2043.4z"/>
  </g>
</svg>