<?xml version="1.0" encoding="utf-8"?>
<!DOCTYPE svg PUBLIC "-//W3C//DTD SVG 1.1//EN" "http://www.w3.org/Graphics/SVG/1.1/DTD/svg11.dtd">
<svg version="1.1"
  xmlns="http://www.w3.org/2000/svg"
  xmlns:xlink="http://www.w3.org/1999/xlink" x="0px" y="0px" viewBox="0 0 1000 1000" enable-background="new 0 0 1000 1000" xml:space="preserve">
  <g transform="translate(0.000000,512.000000) scale(0.100000,-0.100000)">
    <path d="M4069.3,5008.3c-597.8-57.5-1053.8-161-1559.7-352.6l-170.5-63.2l170.5-92c513.5-274,806.7-482.9,1145.8-812.4c260.6-254.8,406.2-429.2,586.3-701.3c594-902.5,754.9-1881.6,479-2937.3c-168.6-643.8-500.1-1214.8-994.4-1711c-590.2-588.2-1272.3-938.9-2109.6-1082.6c-111.1-17.3-354.5-34.5-626.6-40.2l-444.5-11.5l118.8-145.6c166.7-205,548-584.4,741.5-737.7c856.5-678.3,1885.4-1057.6,2979.5-1097.9c1331.7-46,2607.8,446.4,3571.6,1383.4c413.8,402.4,708.9,804.7,971.4,1322.1c699.4,1387.2,701.3,2987.1,5.8,4378.2c-724.3,1446.6-2075.1,2423.8-3696.1,2672.9C4998.6,5015.9,4329.9,5033.2,4069.3,5008.3z M5205.5,4673c557.6-88.1,1032.8-245.2,1511.8-500.1c1304.8-699.4,2186.2-1979.3,2393.2-3475.7c15.3-101.6,26.8-354.5,26.8-574.8c0-413.9-21.1-613.1-97.7-977.2c-141.8-661-482.9-1371.9-919.7-1914.2c-716.6-889.1-1785.8-1494.5-2929.7-1661.2c-1092.2-159.1-2285.9,111.1-3228.6,728.1c-208.8,136-525,389-649.5,515.4l-84.3,88.2l65.1,9.6c36.4,5.7,126.5,15.3,199.3,21.1c379.4,34.5,940.8,197.4,1320.2,381.3c1009.8,492.4,1778.1,1362.3,2128.7,2412.3c249.1,745.4,283.6,1498.4,103.5,2207.3c-245.3,963.8-902.5,1875.8-1778.1,2471.7l-178.2,122.6l72.8,19.2c228,61.3,666.8,132.2,1004,162.9C4345.2,4724.7,5023.5,4701.7,5205.5,4673z"/>
  </g>
</svg>