<?xml version="1.0" encoding="utf-8"?>
<!DOCTYPE svg PUBLIC "-//W3C//DTD SVG 1.1//EN" "http://www.w3.org/Graphics/SVG/1.1/DTD/svg11.dtd">
<svg version="1.1"
  xmlns="http://www.w3.org/2000/svg"
  xmlns:xlink="http://www.w3.org/1999/xlink" x="0px" y="0px" viewBox="0 0 1000 1000" enable-background="new 0 0 1000 1000" xml:space="preserve">
  <g transform="translate(0.000000,512.000000) scale(0.100000,-0.100000)">
    <path d="M3318.4,4411.2v-459.8h153.3h153.3v459.8v459.8h-153.3h-153.3V4411.2z"/>
    <path d="M707.3,4261.7c-49.8-49.8-90-99.6-90-109.2c0-11.5,203.1-222.2,450.2-469.4l450.2-450.2l109.2,111.1l111.1,109.2l-450.2,450.2c-247.1,247.1-459.8,450.2-469.3,450.2C806.9,4353.7,757.1,4311.5,707.3,4261.7z"/>
    <path d="M3126.8,3616.2c-434.9-69-846.7-281.6-1168.6-603.4c-431-431-660.9-1024.9-626.4-1618.8c13.4-220.3,49.8-371.6,128.4-540.2l55.6-120.7l-116.9-109.2C925.7,173.6,745.6-556.2,954.4-1180.8c132.2-396.5,454-735.6,839.1-885c308.4-118.8,132.2-114.9,3804.6-109.2l3342.9,5.7l134.1,44.1c400.4,134.1,655.2,392.7,779.7,789.3c59.4,195.4,61.3,584.3,0,808.4c-101.5,375.5-266.3,651.3-517.2,862.1c-105.4,90-319.9,199.2-425.3,216.5c-72.8,11.5-74.7,15.3-86.2,101.5c-65.1,530.7-195.4,885.1-473.2,1300.8c-168.6,252.9-482.8,572.8-743.3,756.7c-381.2,272-898.5,486.6-1375.5,574.7c-183.9,34.5-295,40.2-626.4,40.2c-358.2,0-427.2-5.7-632.2-49.8l-228-49.8l-97.7,63.2C4205.3,3583.6,3661.3,3700.4,3126.8,3616.2z M3780.1,3309.6c180.1-30.7,319.9-74.7,484.7-153.3l111.1-53.6l-226.1-116.9c-580.5-300.8-1007.7-710.7-1302.7-1251c-90-164.7-226-505.7-247.1-620.7l-13.4-69l-224.1-11.5c-182-7.7-256.7-21.1-404.2-69c-201.1-69-187.7-72.8-251,93.9c-120.7,314.2-90,775.9,76.6,1166.7c168.6,394.6,540.2,775.9,923.4,946.4C3055.9,3325,3421.8,3372.9,3780.1,3309.6z M6218.7,2974.4c645.6-126.4,1187.7-419.5,1624.5-877.4c425.3-448.3,647.5-965.5,678.1-1576.6l13.4-243.3l155.2-7.7c260.5-13.4,465.5-132.2,634.1-369.7C9492.7-334,9575-575.4,9594.2-876.2c30.7-496.2-220.3-862.1-664.7-967.4c-107.3-24.9-544.1-28.7-3394.6-28.7c-3660.9,0-3427.2-9.6-3728,137.9C854.8-1267,1015.7,317.3,2054,677.5c105.4,36.4,176.3,44.1,452.1,51.7l327.6,7.7l23,128.3c13.4,69,51.7,214.6,88.1,321.8c325.7,975.1,1228,1689.6,2310.3,1825.7C5485,3041.4,5979.3,3022.3,6218.7,2974.4z"/>
    <path d="M100,1499.3V1346h459.8h459.8v153.3v153.3H559.8H100V1499.3z"/>
    <path d="M3624.9-2791.9v-306.5h153.3h153.3v306.5v306.5h-153.3h-153.3V-2791.9z"/>
    <path d="M3159.4-2788c-49.8-49.8-90-99.6-90-111.1c0-9.6,65.1-82.4,143.7-160.9l143.7-143.7l109.2,111.1l111.1,109.2l-143.7,143.7c-78.5,78.5-151.3,143.7-162.8,143.7C3259-2696.1,3209.2-2738.2,3159.4-2788z"/>
    <path d="M4126.8-2835.9c-74.7-76.6-137.9-147.5-137.9-159c0-24.9,176.3-199.2,203.1-199.2c9.6,0,82.4,63.2,159,141.8l141.8,143.7l-72.8,82.4c-74.7,82.4-126.4,128.3-143.7,130.3C4270.5-2696.1,4203.4-2759.3,4126.8-2835.9z"/>
    <path d="M6690-3098.4v-306.5h153.3h153.3v306.5v306.5h-153.3H6690V-3098.4z"/>
    <path d="M6224.5-3094.5c-49.8-49.8-90-99.6-90-111.1c0-9.6,65.1-82.4,143.7-160.9l143.7-143.7l109.2,111.1l111.1,109.2l-143.7,143.7c-78.5,78.5-151.3,143.7-162.8,143.7C6324.1-3002.6,6274.3-3044.7,6224.5-3094.5z"/>
    <path d="M7191.9-3142.4c-74.7-76.6-137.9-147.5-137.9-159c0-24.9,176.3-199.2,203.1-199.2c9.6,0,82.4,63.2,159,141.8l141.7,143.7l-49.8,59.4c-47.9,57.5-155.2,153.3-170.5,153.3C7333.7-3002.6,7268.6-3065.8,7191.9-3142.4z"/>
    <path d="M2858.6-3404.9v-153.3h306.5h306.5v153.3v153.3h-306.5h-306.5V-3404.9z"/>
    <path d="M4084.7-3404.9v-153.3h306.5h306.5v153.3v153.3h-306.5h-306.5V-3404.9z"/>
    <path d="M5923.7-3711.4v-153.3h306.5h306.5v153.3v153.2h-306.5h-306.5V-3711.4z"/>
    <path d="M7149.8-3711.4v-153.3h306.5h306.5v153.3v153.2h-306.5h-306.5V-3711.4z"/>
    <path d="M3207.3-3755.4c-74.7-76.6-137.9-147.5-137.9-159c0-24.9,176.2-199.2,203.1-199.2c9.6,0,82.4,63.2,159,141.8l141.8,143.7l-72.8,82.4c-74.7,82.4-126.4,128.4-143.7,130.3C3350.9-3615.6,3283.9-3678.8,3207.3-3755.4z"/>
    <path d="M4078.9-3707.6c-49.8-49.8-90-99.6-90-111.1c0-26.8,279.7-300.8,300.8-293.1c7.7,3.8,57.5,53.7,109.2,109.2l95.8,101.5l-141.8,141.8c-78.5,78.5-151.3,143.7-162.8,143.7C4178.5-3615.6,4128.7-3657.8,4078.9-3707.6z"/>
    <path d="M3624.9-4017.9v-306.5h153.3h153.3v306.5v306.5h-153.3h-153.3V-4017.9z"/>
    <path d="M6272.4-4062c-74.7-76.6-137.9-147.5-137.9-159c0-24.9,176.3-199.2,203.1-199.2c9.6,0,82.4,63.2,159,141.8l141.8,143.7l-49.8,59.4c-47.9,57.5-155.2,153.2-170.5,153.2C6414.1-3922.1,6349-3985.3,6272.4-4062z"/>
    <path d="M7144-4014.1c-49.8-49.8-90-99.6-90-111.1c0-26.8,279.7-300.8,300.8-293.1c7.6,3.8,57.5,53.7,109.2,109.2l95.8,101.5L7418-4065.8c-78.5,78.5-151.3,143.7-162.8,143.7S7193.8-3964.3,7144-4014.1z"/>
    <path d="M6690-4324.4v-306.5h153.3h153.3v306.5v306.5h-153.3H6690V-4324.4z"/>
  </g>
</svg>