<?xml version="1.0" encoding="utf-8"?>
<!DOCTYPE svg PUBLIC "-//W3C//DTD SVG 1.1//EN" "http://www.w3.org/Graphics/SVG/1.1/DTD/svg11.dtd">
<svg version="1.1"
  xmlns="http://www.w3.org/2000/svg"
  xmlns:xlink="http://www.w3.org/1999/xlink" x="0px" y="0px" viewBox="0 0 1000 1000" enable-background="new 0 0 1000 1000" xml:space="preserve">
  <g transform="translate(0.000000,511.000000) scale(0.100000,-0.100000)">
    <path d="M2006.1,4236.3c-107.3-13.4-362.1-63.2-369.7-70.9c-3.8-5.7,19.2-47.9,53.6-95.8c291.2-425.3,323.8-931,84.3-1362.1c-88.1-159-339.1-394.6-505.7-475.1c-220.3-107.3-352.5-134.1-613-122.6c-180.1,7.7-251,19.2-387,67L100,2236.3v-137.9c1.9-306.5,74.7-622.6,212.6-911.9c120.7-254.8,233.7-411.9,438.7-614.9L918,406.8l-24.9-141.7c-155.2-881.2,356.3-1651.3,1199.2-1808.4c145.6-28.7,513.4-30.6,3505.7-26.8l3342.9,5.7l134.1,44.1c400.4,134.1,655.2,392.7,779.7,789.3c59.4,195.4,61.3,584.3,0,808.4c-101.5,375.5-266.3,651.3-517.2,862.1c-105.4,90-319.9,199.2-425.3,216.5c-72.8,11.5-74.7,15.3-86.2,101.5c-65.1,530.7-195.4,885.1-473.2,1300.8c-168.6,252.9-482.8,572.8-743.3,756.7c-749,532.6-1752.9,743.3-2659,559.4c-241.4-47.9-590-172.4-821.8-295l-218.4-113L3772.4,3606c-329.5,333.3-745.2,546-1201.1,615C2402.7,4247.8,2140.2,4253.6,2006.1,4236.3z M2688.1,3887.6c321.8-82.4,634.1-260.5,850.6-478.9l114.9-116.9l-124.5-109.2c-275.9-241.4-505.7-523-668.6-819.9c-99.6-178.2-237.5-521.1-260.5-643.7l-13.4-69l-222.2-11.5c-237.6-11.5-411.9-53.7-588.1-143.7c-293.1-147.5-553.6-406.1-699.2-693.5l-44.1-84.3L910.3,847.4c-239.5,252.9-394.6,549.8-473.2,911.9l-9.6,47.9h300.8c287.4,1.9,308.4,3.8,467.4,61.3c816.1,287.4,1235.6,1137.9,965.5,1946.3l-44.1,134.1l212.6-11.5C2446.7,3931.7,2607.6,3908.7,2688.1,3887.6z M6218.7,3579.2c645.6-126.4,1187.7-419.5,1624.5-877.4c425.3-448.3,647.5-965.5,678.1-1576.6l13.4-243.3l155.2-7.7c260.5-13.4,465.5-132.2,634.1-369.7c168.6-233.7,250.9-475.1,270.1-775.8c30.7-496.2-220.3-862.1-664.7-967.4c-107.3-24.9-544.1-28.7-3394.6-28.7c-3660.9,0-3427.2-9.6-3728,137.9C854.8-662.1,1015.7,922.1,2054,1282.3c105.4,36.4,176.3,44.1,452.1,51.7l327.6,7.7l23,128.3c13.4,69,51.7,214.6,88.1,321.8c325.7,975.1,1228,1689.6,2310.3,1825.7C5485,3646.3,5979.3,3627.1,6218.7,3579.2z"/>
    <path d="M3624.9-2187v-306.5h153.3h153.3v306.5v306.5h-153.3h-153.3V-2187z"/>
    <path d="M3159.4-2183.2c-49.8-49.8-90-99.6-90-111.1c0-9.6,65.1-82.4,143.7-160.9l143.7-143.7l109.2,111.1l111.1,109.2l-143.7,143.7c-78.5,78.5-151.3,143.7-162.8,143.7C3259-2091.2,3209.2-2133.4,3159.4-2183.2z"/>
    <path d="M4126.8-2231.1c-74.7-76.6-137.9-147.5-137.9-159c0-24.9,176.3-199.2,203.1-199.2c9.6,0,82.4,63.2,159,141.8l141.8,143.7l-72.8,82.4c-74.7,82.4-126.4,128.3-143.7,130.3C4270.5-2091.2,4203.4-2154.5,4126.8-2231.1z"/>
    <path d="M6690-2493.5v-306.5h153.3h153.3v306.5v306.5h-153.3H6690V-2493.5z"/>
    <path d="M6224.5-2489.7c-49.8-49.8-90-99.6-90-111.1c0-9.6,65.1-82.4,143.7-160.9l143.7-143.7l109.2,111.1l111.1,109.2l-143.7,143.7c-78.5,78.5-151.3,143.7-162.8,143.7C6324.1-2397.8,6274.3-2439.9,6224.5-2489.7z"/>
    <path d="M7191.9-2537.6c-74.7-76.6-137.9-147.5-137.9-159c0-24.9,176.3-199.2,203.1-199.2c9.6,0,82.4,63.2,159,141.8l141.7,143.7L7508-2551c-47.9,57.5-155.2,153.3-170.5,153.3C7333.7-2397.8,7268.6-2461,7191.9-2537.6z"/>
    <path d="M2858.6-2800.1v-153.3h306.5h306.5v153.3v153.3h-306.5h-306.5V-2800.1z"/>
    <path d="M4084.7-2800.1v-153.3h306.5h306.5v153.3v153.3h-306.5h-306.5V-2800.1z"/>
    <path d="M5923.7-3106.6v-153.3h306.5h306.5v153.3v153.3h-306.5h-306.5V-3106.6z"/>
    <path d="M7149.8-3106.6v-153.3h306.5h306.5v153.3v153.3h-306.5h-306.5V-3106.6z"/>
    <path d="M3207.3-3150.6c-74.7-76.6-137.9-147.5-137.9-159c0-24.9,176.2-199.2,203.1-199.2c9.6,0,82.4,63.2,159,141.8l141.8,143.7l-72.8,82.4c-74.7,82.4-126.4,128.4-143.7,130.3C3350.9-3010.8,3283.9-3074,3207.3-3150.6z"/>
    <path d="M4078.9-3102.7c-49.8-49.8-90-99.6-90-111.1c0-26.8,279.7-300.8,300.8-293.1c7.7,3.8,57.5,53.7,109.2,109.2l95.8,101.5l-141.8,141.8c-78.5,78.5-151.3,143.7-162.8,143.7C4178.5-3010.8,4128.7-3052.9,4078.9-3102.7z"/>
    <path d="M3624.9-3413.1v-306.5h153.3h153.3v306.5v306.5h-153.3h-153.3V-3413.1z"/>
    <path d="M6272.4-3457.1c-74.7-76.6-137.9-147.5-137.9-159c0-24.9,176.3-199.2,203.1-199.2c9.6,0,82.4,63.2,159,141.8l141.8,143.7l-49.8,59.4c-47.9,57.5-155.2,153.3-170.5,153.3C6414.1-3317.3,6349-3380.5,6272.4-3457.1z"/>
    <path d="M7144-3409.2c-49.8-49.8-90-99.6-90-111.1c0-26.8,279.7-300.8,300.8-293.1c7.6,3.8,57.5,53.7,109.2,109.2l95.8,101.5L7418-3461c-78.5,78.5-151.3,143.7-162.8,143.7S7193.8-3359.5,7144-3409.2z"/>
    <path d="M6690-3719.6v-306.5h153.3h153.3v306.5v306.5h-153.3H6690V-3719.6z"/>
  </g>
</svg>