<?xml version="1.0" encoding="utf-8"?>
<!DOCTYPE svg PUBLIC "-//W3C//DTD SVG 1.1//EN" "http://www.w3.org/Graphics/SVG/1.1/DTD/svg11.dtd">
<svg version="1.1"
  xmlns="http://www.w3.org/2000/svg"
  xmlns:xlink="http://www.w3.org/1999/xlink" x="0px" y="0px" viewBox="0 0 1000 1000" enable-background="new 0 0 1000 1000" xml:space="preserve">
  <g transform="translate(0.000000,511.000000) scale(0.100000,-0.100000)">
    <path d="M4846.9,4684c-718.3-91.9-1404-394.6-1926.9-850.4c-302.6-266.2-578.4-632.1-752.7-1001.7c-88.1-187.7-193.4-484.6-193.4-545.9c0-21.1-34.5-26.8-162.8-26.8c-907.9,0-1658.7-771.9-1708.5-1752.6C77.6-1,238.5-430,585.2-776.7C771-962.5,918.4-1060.2,1154-1150.2c312.2-120.7,130.2-116.8,4056.7-111.1c4014.6,5.7,3639.2-7.7,3964.8,153.2c229.8,114.9,455.8,340.9,570.8,570.8c101.5,203,137.9,342.8,151.3,574.6c24.9,440.5-153.2,902.1-471.2,1220.1c-191.5,191.5-450.1,333.3-657,362l-90,11.5l-11.5,109.2c-86.2,812.1-377.3,1442.3-919.4,1984.3c-503.7,501.8-1120.5,814-1857.9,940.4C5651.3,4705.1,5097.8,4716.6,4846.9,4684z M5871.6,4356.5c666.5-120.7,1202.8-396.5,1656.8-852.3c526.7-524.8,806.4-1160.7,837-1909.6l11.5-254.7h126.4c455.8,0,858.1-325.6,1026.6-831.3c99.6-300.7,80.4-626.3-51.7-896.4c-80.4-160.9-291.1-371.6-452-452c-258.6-126.4-21.1-120.7-3949.5-114.9c-3993.5,5.7-3620-7.7-3945.7,153.2C899.3-686.7,671.4-458.7,560.3-230.8C439.6,16.3,412.8,136.9,414.7,439.6c1.9,222.2,9.6,283.5,53.6,427.1c137.9,455.9,434.8,808.3,831.3,984.5c170.5,74.7,331.4,101.5,637.8,101.5h279.7l23,130.2c13.4,70.9,53.6,218.4,90,325.6c229.8,691.4,735.5,1268,1423.1,1618.5c356.3,182,689.5,291.1,1045.8,337.1c84.3,11.5,180,24.9,210.7,28.7C5132.2,4410.1,5706.9,4385.2,5871.6,4356.5z"/>
    <path d="M3314.6-1954.6v-383.1h153.2H3621v383.1v383.1h-153.2h-153.2V-1954.6z"/>
    <path d="M2695.9-1874.2c-49.8-49.8-90-99.6-90-111.1c0-24.9,425.2-448.2,452-448.2c24.9,0,199.2,176.2,199.2,203c0,24.9-425.2,448.2-452,448.2C2795.5-1782.3,2745.7-1824.4,2695.9-1874.2z"/>
    <path d="M3893-1998.7c-116.8-118.8-214.5-224.1-214.5-235.6c0-24.9,176.2-199.2,203-199.2c24.9,0,448.2,425.2,448.2,452c0,24.9-176.2,199.2-203,199.2C4117.1-1782.3,4011.8-1880,3893-1998.7z"/>
    <path d="M6379.2-2720.8v-383.1h153.2h153.2v383.1v383.1h-153.2h-153.2V-2720.8z"/>
    <path d="M2395.2-2644.2v-153.2h383.1h383.1v153.2v153.2h-383.1h-383.1V-2644.2z"/>
    <path d="M3774.3-2644.2v-153.2h383.1h383.1v153.2v153.2h-383.1h-383.1V-2644.2z"/>
    <path d="M5760.5-2640.3c-49.8-49.8-90-99.6-90-111.1c0-9.6,99.6-116.9,220.3-237.5l220.3-220.3l109.2,111.1l111.1,109.2L6111-2768.7c-120.7,120.7-227.9,220.3-239.4,220.3C5860.1-2548.4,5810.3-2590.5,5760.5-2640.3z"/>
    <path d="M6957.6-2764.8c-116.8-118.8-214.5-224.1-214.5-235.6c0-24.9,176.2-199.2,203-199.2c24.9,0,448.2,425.2,448.2,452c0,24.9-176.2,199.2-203,199.2C7181.7-2548.4,7076.4-2646.1,6957.6-2764.8z"/>
    <path d="M2820.4-3071.3c-116.9-118.8-214.5-224.1-214.5-235.6c0-24.9,176.2-199.2,203-199.2c24.9,0,448.2,425.2,448.2,452c0,24.9-176.2,199.2-203,199.2C3044.5-2854.9,2939.2-2952.5,2820.4-3071.3z"/>
    <path d="M3768.5-2946.8c-49.8-49.8-90-99.6-90-111.1c0-26.8,432.9-453.9,453.9-446.3c7.6,3.8,59.4,53.6,111.1,109.2l93.8,101.5L4119-3073.2c-120.7,118.7-227.9,218.4-239.4,218.4C3868.1-2854.9,3818.3-2897,3768.5-2946.8z"/>
    <path d="M3314.6-3333.7v-383.1h153.2H3621v383.1v383.1h-153.2h-153.2V-3333.7z"/>
    <path d="M5459.8-3410.3v-153.2h383.1h383.1v153.2v153.2h-383.1h-383.1V-3410.3z"/>
    <path d="M6838.8-3410.3v-153.2h383.1H7605v153.2v153.2h-383.1h-383.1V-3410.3z"/>
    <path d="M5885-3837.4c-116.8-118.8-214.5-224.1-214.5-235.6c0-24.9,176.2-199.2,203-199.2c24.9,0,448.2,425.2,448.2,452c0,24.9-176.2,199.2-203,199.2C6109.1-3621,6003.8-3718.7,5885-3837.4z"/>
    <path d="M6833.1-3712.9c-49.8-49.8-90-99.6-90-111.1c0-9.6,99.6-116.8,220.3-237.5l220.3-220.3l109.2,111.1l111.1,109.2l-220.3,220.3c-120.7,120.7-227.9,220.3-239.4,220.3S6882.9-3663.1,6833.1-3712.9z"/>
    <path d="M6379.2-4099.8v-383.1h153.2h153.2v383.1v383.1h-153.2h-153.2V-4099.8z"/>
  </g>
</svg>