<?xml version="1.0" encoding="utf-8"?>
<!DOCTYPE svg PUBLIC "-//W3C//DTD SVG 1.1//EN" "http://www.w3.org/Graphics/SVG/1.1/DTD/svg11.dtd">
<svg version="1.1"
  xmlns="http://www.w3.org/2000/svg"
  xmlns:xlink="http://www.w3.org/1999/xlink" x="0px" y="0px" viewBox="0 0 1000 1000" enable-background="new 0 0 1000 1000" xml:space="preserve">
  <g transform="translate(0.000000,511.000000) scale(0.100000,-0.100000)">
    <path d="M3751.1,4917.1c-50.3-50.3-90.9-100.6-90.9-110.3c0-11.6,265.1-284.4,590.1-609.5l590.1-590.1V2548.9V1488.6h-56.1c-135.4,0-375.4-98.7-617.2-251.5c-40.6-27.1-67.7-3.9-845.5,773.9l-803,803v739.1v741h-154.8H2209v-696.5V2901h-696.5H815.9v-154.8v-154.8h741H2296l803-803c777.8-777.8,801-804.9,773.9-845.5c-152.8-241.9-251.5-481.8-251.5-617.2v-56.1H2561.1H1502.8L912.6,859.8c-325.1,325.1-599.8,590.1-609.5,590.1c-25.2,0-203.2-178-203.2-203.2c0-11.6,249.6-268.9,555.3-574.7l557.2-557.2L655.3-442.4C349.6-748.1,100-1007.4,100-1017.1c0-25.1,178-203.2,203.2-203.2c11.6,0,284.4,265.1,609.5,590.1L1502.8-40h1058.4h1060.3v-56.1c0-135.4,98.7-375.3,251.5-617.2c27.1-40.6,3.9-67.7-773.9-845.5l-803-803h-739.1h-741v-154.8v-154.8h696.5H2209v-696.5v-696.5h154.8h154.8v741v739.1l799.1,799.1c437.3,437.3,804.9,797.2,812.6,797.2c7.7,0,60-30.9,116.1-67.7c123.8-85.1,359.9-178,493.4-195.4l100.6-13.6v-1056.4v-1056.4l-590.1-590.1c-325.1-325-590.1-599.8-590.1-609.5c0-25.1,178-203.2,203.2-203.2c11.6,0,268.9,249.6,574.7,555.3l557.2,557.2l561.1-561.1l561.1-561.1l110.3,112.2l112.2,110.3L5744-3971.6l-594,594v1056.4v1056.4l100.6,13.6c139.3,19.3,377.3,114.1,503.1,203.2l106.4,75.4l806.8-806.8l804.9-804.9v-741v-739.1h154.8h154.8v696.5v696.5h696.5h696.5v154.8v154.8h-739.1h-741l-804.9,804.9L6082.5-750l75.4,106.4c89,125.8,183.8,363.8,203.2,503.1L6374.7-40h1056.4h1056.4l594-594l595.9-595.9l110.3,112.2l112.2,110.3l-561.1,561.1l-561.1,561.1L9335,672.1c305.7,305.7,555.3,565,555.3,574.7c0,25.1-178,203.2-203.2,203.2c-11.6,0-284.4-265.1-609.5-590.1l-590.1-590.1H7431.1H6374.7l-13.6,100.6c-17.4,133.5-110.3,369.6-195.4,493.4C6129,919.7,6098,972,6098,979.7c0,9.7,359.9,375.4,799.1,814.6l797.2,797.2h741h739.1v154.8V2901h-696.5h-696.5v696.5v696.5h-154.8h-154.8v-741v-739.1l-803-803c-777.8-777.8-804.9-801-845.5-773.9c-241.9,152.8-481.8,251.5-617.2,251.5H5150v1060.3v1058.4l590.1,590.1c325,325,590.1,599.8,590.1,609.5c0,25.2-178,203.2-203.2,203.2c-11.6,0-269-249.6-574.7-555.3l-557.2-557.2l-557.2,557.2c-305.7,305.7-565,555.3-574.7,555.3C3851.7,5010,3801.4,4967.4,3751.1,4917.1z M5200.3,1177.1c189.6-32.9,412.1-152.9,557.2-299.9c421.8-419.9,421.8-1104.8,1.9-1526.6c-421.8-419.9-1106.7-419.9-1526.6,1.9c-423.7,423.7-423.7,1099,0,1524.7C4492.1,1134.5,4838.4,1242.9,5200.3,1177.1z"/>
  </g>
</svg>