<?xml version="1.0" encoding="utf-8"?>
<!DOCTYPE svg PUBLIC "-//W3C//DTD SVG 1.1//EN" "http://www.w3.org/Graphics/SVG/1.1/DTD/svg11.dtd">
<svg version="1.1"
  xmlns="http://www.w3.org/2000/svg"
  xmlns:xlink="http://www.w3.org/1999/xlink" x="0px" y="0px" viewBox="0 0 1000 1000" enable-background="new 0 0 1000 1000" xml:space="preserve">
  <g transform="translate(0.000000,512.000000) scale(0.100000,-0.100000)">
    <path d="M4280.3,3264.8l-610.6-1757.1l-1785.8-5.7L100,1498.1v-55.5c0-49.8,128.2-155,1435.5-1171.4c788.6-612.5,1435.5-1125.5,1435.5-1135c0-11.5-292.8-897.7-648.9-1969.6L1673.4-4780h55.5c44,0,392.4,252.7,1663.3,1205.9L5000-2368.3l1607.8-1205.9C7878.8-4527.3,8227.1-4780,8271.1-4780h55.5l-648.9,1946.6c-356,1071.9-648.9,1958.1-648.9,1969.6c0,9.6,647,522.6,1435.5,1135C9771.8,1287.6,9900,1392.9,9900,1442.6v55.5l-1783.9,3.8l-1785.8,5.7l-610.6,1757.1L5109.1,5020H5000h-109.1L4280.3,3264.8z M5562.7,2780.5l553.2-1588.7l1510.2-3.8l1508.3-5.7l-1232.7-957c-679.5-526.4-1234.6-966.6-1234.6-976.2c-1.9-11.5,243.1-756.1,543.6-1655.7s545.5-1638.4,545.5-1640.4c0-3.8-620.2,459.4-1378.1,1027.9L5000-1985.5L3621.9-3019.1c-758-568.5-1378.1-1031.7-1378.1-1027.9c0,1.9,245,740.7,545.5,1640.4s545.5,1644.2,543.6,1655.7c0,9.6-555.1,449.8-1234.6,976.2l-1232.7,957l1508.3,5.7l1510.2,3.8l553.2,1588.7c302.4,874.7,557,1588.7,562.7,1588.7S5260.3,3655.3,5562.7,2780.5z"/>
  </g>
</svg>