<?xml version="1.0" encoding="utf-8"?>
<!DOCTYPE svg PUBLIC "-//W3C//DTD SVG 1.1//EN" "http://www.w3.org/Graphics/SVG/1.1/DTD/svg11.dtd">
<svg version="1.1"
  xmlns="http://www.w3.org/2000/svg"
  xmlns:xlink="http://www.w3.org/1999/xlink" x="0px" y="0px" viewBox="0 0 1000 1000" enable-background="new 0 0 1000 1000" xml:space="preserve">
  <g transform="translate(0.000000,511.000000) scale(0.100000,-0.100000)">
    <path d="M4846.9,4561.8c-718.3-91.9-1404-394.6-1926.9-850.4c-302.6-266.2-578.4-632.1-752.7-1001.7c-88.1-187.7-193.4-484.6-193.4-545.9c0-21.1-34.5-26.8-162.8-26.8c-907.9,0-1658.7-771.9-1708.5-1752.6c-24.9-507.6,136-936.6,482.7-1283.3c185.8-185.8,333.3-283.5,568.9-373.5c312.2-120.7,130.2-116.8,4056.7-111.1c4014.6,5.7,3639.2-7.7,3964.8,153.2c229.8,114.9,455.8,340.9,570.8,570.8c101.5,203,137.9,342.8,151.3,574.6c24.9,440.5-153.2,902.1-471.2,1220.1c-191.5,191.5-450.1,333.3-657,362l-90,11.5l-11.5,109.2c-86.2,812.1-377.3,1442.3-919.4,1984.3c-503.7,501.8-1120.5,814-1857.9,940.4C5651.3,4582.9,5097.8,4594.4,4846.9,4561.8z M5871.6,4234.3c666.5-120.7,1202.8-396.5,1656.8-852.3c526.7-524.8,806.4-1160.7,837-1909.6l11.5-254.7h126.4c455.8,0,858.1-325.6,1026.6-831.3c99.6-300.7,80.4-626.3-51.7-896.4c-80.4-160.9-291.1-371.6-452-452c-258.6-126.4-21.1-120.7-3949.5-114.9c-3993.5,5.7-3620-7.7-3945.7,153.2C899.3-808.9,671.4-580.9,560.3-353C439.6-105.9,412.8,14.7,414.7,317.4c1.9,222.2,9.6,283.5,53.6,427.1c137.9,455.9,434.8,808.3,831.3,984.5c170.5,74.7,331.4,101.5,637.8,101.5h279.7l23,130.2c13.4,70.9,53.6,218.4,90,325.6c229.8,691.4,735.5,1268,1423.1,1618.5c356.3,182,689.5,291.1,1045.8,337.1c84.3,11.5,180,24.9,210.7,28.7C5132.2,4287.9,5706.9,4263,5871.6,4234.3z"/>
    <path d="M3056-2720.4c-147.5-344.7-270.1-632.1-273.9-641.6c-3.8-9.6,122.6-19.2,281.5-21.1l287.3-5.7L3159.4-3724c-105.3-183.9-212.6-371.6-239.4-415.6l-46-80.4l128.3-76.6c72.8-42.1,136-68.9,141.7-63.2c17.2,19.2,704.8,1222,718.3,1258.4c9.6,23-34.5,28.7-304.5,32.6l-314.1,5.7l178.1,417.5c99.6,231.8,180.1,423.3,180.1,427.1c0,7.7-182,91.9-243.3,111.1C3328-2097.9,3289.7-2176.4,3056-2720.4z"/>
    <path d="M4588.3-2720.4c-147.5-344.7-270.1-632.1-273.9-641.6c-3.8-9.6,122.6-19.2,281.5-21.1l287.3-5.7L4691.7-3724c-105.3-183.9-212.6-371.6-239.4-415.6l-46-80.4l128.3-76.6c72.8-42.1,136-68.9,141.7-63.2c17.2,19.2,704.9,1222,718.3,1258.4c9.6,23-34.5,28.7-304.5,32.6l-314.1,5.7l178.1,417.5c99.6,231.8,180,423.3,180,427.1c0,7.7-182,91.9-243.3,111.1C4860.3-2097.9,4822-2176.4,4588.3-2720.4z"/>
    <path d="M6120.6-2720.4c-147.5-344.7-270.1-632.1-273.9-641.6c-3.8-9.6,122.6-19.2,281.6-21.1l287.3-5.7L6224-3724c-105.3-183.9-212.6-371.6-239.4-415.6l-46-80.4l128.3-76.6c72.8-42.1,136-68.9,141.7-63.2c17.2,19.2,704.9,1222,718.3,1258.4c9.6,23-34.5,28.7-304.5,32.6l-314.1,5.7l178.1,417.5c99.6,231.8,180,423.3,180,427.1c0,7.7-182,91.9-243.3,111.1C6392.6-2097.9,6354.3-2176.4,6120.6-2720.4z"/>
  </g>
</svg>