<?xml version="1.0" encoding="utf-8"?>
<!DOCTYPE svg PUBLIC "-//W3C//DTD SVG 1.1//EN" "http://www.w3.org/Graphics/SVG/1.1/DTD/svg11.dtd">
<svg version="1.1"
  xmlns="http://www.w3.org/2000/svg"
  xmlns:xlink="http://www.w3.org/1999/xlink" x="0px" y="0px" viewBox="0 0 1000 1000" enable-background="new 0 0 1000 1000" xml:space="preserve">
  <g transform="translate(0.000000,512.000000) scale(0.100000,-0.100000)">
    <path d="M4846.9,4254.4v-765.6H5000h153.1v765.6V5020H5000h-153.1V4254.4z"/>
    <path d="M1778.6,3339.5c-49.8-49.8-90-99.5-90-109.1c0-11.5,168.4-187.6,373.2-392.4l373.2-373.2l109.1,111l111,109.1L2282,3058.1c-204.8,204.8-382.8,373.2-392.4,373.2C1878.2,3431.3,1828.4,3389.2,1778.6,3339.5z"/>
    <path d="M7719.9,3060l-373.2-373.2l93.8-101.5c51.7-55.5,103.4-105.3,111-109.1c21.1-7.7,759.9,725.4,759.9,754.1c0,24.9-176.1,201-201,201C8098.9,3431.3,7922.8,3262.9,7719.9,3060z"/>
    <path d="M4665,2702.1c-1041.2-139.7-1919.8-913-2180.1-1919.8C2104-678.2,3028.5-2142.4,4517.7-2439.1c237.4-47.9,736.9-45.9,970.4,1.9c932.1,193.3,1663.3,826.9,1967.7,1707.3c107.2,312,135.9,491.9,135.9,849.9c0,342.6-26.8,532.1-114.8,798.2c-300.5,905.3-1058.5,1577.2-1983,1757.1C5302.4,2713.6,4850.7,2727,4665,2702.1z M5455.5,2370.9c457.5-99.5,834.5-304.3,1163.7-631.6c323.5-323.5,526.4-694.8,633.6-1163.8c44-195.2,44-715.8,0-911.1c-107.2-468.9-308.2-836.4-633.6-1163.7c-327.3-325.4-694.8-526.4-1163.7-633.6c-195.2-44-715.9-44-911.1,0c-468.9,107.2-840.3,310.1-1163.8,633.6c-335,336.9-549.3,738.8-641.2,1207.8c-40.2,197.1-34.5,668,9.6,870.9c95.7,447.9,306.3,834.5,631.6,1159.9c375.2,373.2,796.2,580,1360.9,666.1C4858.4,2422.6,5319.6,2399.6,5455.5,2370.9z"/>
    <path d="M100,120V-33.1h765.6h765.6V120v153.1H865.6H100V120z"/>
    <path d="M8368.7,120V-33.1h765.6H9900V120v153.1h-765.6h-765.6V120z"/>
    <path d="M2054.3-2605.6L1681-2978.9l93.8-101.4c51.7-55.5,103.4-105.3,111-109.1c21.1-7.6,759.9,725.4,759.9,754.2c0,24.9-176.1,201-201,201C2433.2-2234.3,2257.2-2402.7,2054.3-2605.6z"/>
    <path d="M7444.3-2326.2c-49.8-49.8-90-99.5-90-109.1c0-24.9,731.2-756.1,756.1-756.1s201,176.1,201,201c0,26.8-731.2,756.1-756.1,756.1C7543.8-2234.3,7494-2276.4,7444.3-2326.2z"/>
    <path d="M4846.9-4014.4V-4780H5000h153.1v765.6v765.6H5000h-153.1V-4014.4z"/>
  </g>
</svg>