<?xml version="1.0" encoding="utf-8"?>
<!DOCTYPE svg PUBLIC "-//W3C//DTD SVG 1.1//EN" "http://www.w3.org/Graphics/SVG/1.1/DTD/svg11.dtd">
<svg version="1.1"
  xmlns="http://www.w3.org/2000/svg"
  xmlns:xlink="http://www.w3.org/1999/xlink" x="0px" y="0px" viewBox="0 0 1000 1000" enable-background="new 0 0 1000 1000" xml:space="preserve">
  <g transform="translate(0.000000,511.000000) scale(0.100000,-0.100000)">
    <path d="M4846.9,3631.9v-842.2H5000h153.1v842.2v842.2H5000h-153.1V3631.9z"/>
    <path d="M1013,2793.5c-49.8-49.8-90-99.5-90-109.1c0-11.5,271.8-290.9,602.9-622.1l602.9-602.9l109.1,111l111,109.1l-602.9,602.9c-331.1,331.1-612.5,602.9-622.1,602.9C1112.5,2885.4,1062.8,2843.3,1013,2793.5z"/>
    <path d="M8257.7,2286.3c-327.3-327.3-597.2-606.8-597.2-616.3c0-24.9,176.1-201,201-201c11.5,0,290.9,269.9,620.2,601l602.9,602.9l-74.7,82.3c-74.7,82.3-124.4,128.2-143.6,130.2C8860.7,2885.4,8587,2615.5,8257.7,2286.3z"/>
    <path d="M4703.3,2472C3346.2,2326.5,2259.1,1331.2,1991.1-10.6c-61.2-308.2-61.2-832.6,0-1133.1c44-220.1,135.9-514.9,222-702.5l49.8-111H1181.4H100v-153.1v-153.1h4900h4900v153.1v153.1H8818.6H7739l65.1,155c86.1,199.1,172.3,478.5,214.4,696.7c51.7,266.1,45.9,813.5-9.6,1094.8C7762,1229.7,6808.8,2184.8,5580,2426C5379,2466.2,4887.1,2491.1,4703.3,2472z M5549.3,2121.7c403.9-88,777.1-256.5,1100.6-499.6C7203.1,1206.8,7566.7,623,7712.2-81.4c49.8-245,45.9-788.6-9.6-1039.3c-53.6-245-122.5-442.2-225.8-658.4l-84.2-178H5000H2607.4l-84.2,178c-447.9,922.6-346.4,2015.5,262.2,2838.6c124.4,170.4,405.8,451.7,576.1,576.1c363.7,269.9,830.7,457.5,1284.3,520.6C4850.7,2184.8,5342.6,2165.7,5549.3,2121.7z"/>
    <path d="M100-579.1v-153.1h765.6h765.6v153.1v153.1H865.6H100V-579.1z"/>
    <path d="M8368.7-579.1v-153.1h765.6H9900v153.1v153.1h-765.6h-765.6V-579.1z"/>
    <path d="M3930-3040.5c-55.5-59.3-97.6-114.8-93.8-124.4c3.8-7.7,241.2-256.5,528.3-551.3l524.5-537.8h111h111l524.5,537.8c287.1,294.8,524.4,543.6,528.3,551.3c1.9,7.6-40.2,63.2-93.8,122.5l-97.6,111l-476.6-470.8c-260.3-258.4-480.4-468.9-490-468.9c-7.7,0-225.9,210.5-484.3,468.9s-474.7,468.9-480.4,468.9C4033.4-2933.4,3983.6-2981.2,3930-3040.5z"/>
  </g>
</svg>