<?xml version="1.0" encoding="utf-8"?>
<!DOCTYPE svg PUBLIC "-//W3C//DTD SVG 1.1//EN" "http://www.w3.org/Graphics/SVG/1.1/DTD/svg11.dtd">
<svg version="1.1"
  xmlns="http://www.w3.org/2000/svg"
  xmlns:xlink="http://www.w3.org/1999/xlink" x="0px" y="0px" viewBox="0 0 1000 1000" enable-background="new 0 0 1000 1000" xml:space="preserve">
  <g transform="translate(0.000000,511.000000) scale(0.100000,-0.100000)">
    <path d="M4846.9,3607.9v-842.2H5000h153.1v842.2v842.2H5000h-153.1V3607.9z"/>
    <path d="M1013,2769.6c-49.8-49.8-90-99.5-90-109.1c0-11.5,271.8-290.9,602.9-622.1l602.9-602.9l109.1,111l111,109.1l-602.9,602.9c-331.1,331.1-612.5,602.9-622.1,602.9C1112.5,2861.5,1062.8,2819.4,1013,2769.6z"/>
    <path d="M8257.7,2262.4c-327.3-327.3-597.2-606.8-597.2-616.3c0-24.9,176.1-201,201-201c11.5,0,290.9,269.9,620.2,601l602.9,602.9l-74.7,82.3c-74.7,82.3-124.4,128.2-143.6,130.2C8860.7,2861.5,8587,2591.6,8257.7,2262.4z"/>
    <path d="M4703.3,2448C3346.2,2302.6,2259.1,1307.2,1991.1-34.5c-61.2-308.2-61.2-832.6,0-1133.1c44-220.1,135.9-514.9,222-702.5l49.8-111H1181.4H100v-153.1v-153.1h4900h4900v153.1v153.1H8818.6H7739l65.1,155c86.1,199.1,172.3,478.5,214.4,696.7c51.7,266.1,45.9,813.5-9.6,1094.8C7762,1205.8,6808.8,2160.9,5580,2402.1C5379,2442.3,4887.1,2467.2,4703.3,2448z M5549.3,2097.8c403.9-88,777.1-256.5,1100.6-499.6c553.2-415.4,916.8-999.1,1062.3-1703.5c49.8-245,45.9-788.6-9.6-1039.3c-53.6-245-122.5-442.2-225.8-658.4l-84.2-178H5000H2607.4l-84.2,178c-447.9,922.6-346.4,2015.5,262.2,2838.6c124.4,170.4,405.8,451.7,576.1,576.1c363.7,269.9,830.7,457.5,1284.3,520.6C4850.7,2160.9,5342.6,2141.8,5549.3,2097.8z"/>
    <path d="M100-603v-153.1h765.6h765.6V-603v153.1H865.6H100V-603z"/>
    <path d="M8368.7-603v-153.1h765.6H9900V-603v153.1h-765.6h-765.6V-603z"/>
    <path d="M4364.5-3437.7c-287.1-294.8-524.4-543.6-528.3-549.3c-1.9-7.7,40.2-65.1,93.8-126.3l99.5-111l470.9,470.9c260.3,258.4,480.4,470.8,490,470.8c11.5,0,231.6-212.5,493.8-472.8l474.7-474.7l105.3,109.1c59.3,61.3,103.4,118.7,99.5,128.3c-1.9,9.6-241.2,260.3-528.3,555.1L5111-2899.9h-111h-111L4364.5-3437.7z"/>
  </g>
</svg>