<?xml version="1.0" encoding="utf-8"?>
<!DOCTYPE svg PUBLIC "-//W3C//DTD SVG 1.1//EN" "http://www.w3.org/Graphics/SVG/1.1/DTD/svg11.dtd">
<svg version="1.1"
  xmlns="http://www.w3.org/2000/svg"
  xmlns:xlink="http://www.w3.org/1999/xlink" x="0px" y="0px" viewBox="0 0 1000 1000" enable-background="new 0 0 1000 1000" xml:space="preserve">
  <g transform="translate(0.000000,511.000000) scale(0.100000,-0.100000)">
    <path d="M2006.1,4274.6c-107.3-13.4-362.1-63.2-369.7-70.9c-3.8-5.7,19.2-47.9,53.6-95.8c291.2-425.3,323.8-931,84.3-1362.1c-88.1-159-339.1-394.6-505.7-475.1c-220.3-107.3-352.5-134.1-613-122.6c-180.1,7.7-251,19.2-387,67.1L100,2274.6v-137.9c1.9-306.5,74.7-622.6,212.6-911.9C433.3,970,546.4,812.9,751.3,609.9L918,445.1l-24.9-141.8C737.9-577.9,1249.4-1348,2092.3-1505.1c145.6-28.7,513.4-30.6,3505.7-26.8l3342.9,5.7l134.1,44.1c400.4,134.1,655.2,392.7,779.7,789.3c59.4,195.4,61.3,584.3,0,808.4c-101.5,375.5-266.3,651.3-517.2,862.1c-105.4,90-319.9,199.2-425.3,216.5c-72.8,11.5-74.7,15.3-86.2,101.5c-65.1,530.7-195.4,885.1-473.2,1300.8c-168.6,252.9-482.8,572.8-743.3,756.7c-749,532.6-1752.9,743.3-2659,559.4c-241.4-47.9-590-172.4-821.8-295l-218.4-113l-137.9,139.8c-329.5,333.3-745.2,546-1201.1,615C2402.7,4286.1,2140.2,4291.9,2006.1,4274.6z M2688.1,3926c321.8-82.4,634.1-260.5,850.6-478.9l114.9-116.8L3529.1,3221c-275.9-241.4-505.7-523-668.6-819.9c-99.6-178.2-237.5-521.1-260.5-643.7l-13.4-69l-222.2-11.5c-237.6-11.5-411.9-53.7-588.1-143.7c-293.1-147.5-553.6-406.1-699.2-693.5l-44.1-84.3L910.3,885.7c-239.5,252.9-394.6,549.8-473.2,911.9l-9.6,47.9h300.8c287.4,1.9,308.4,3.8,467.4,61.3c816.1,287.4,1235.6,1137.9,965.5,1946.3l-44.1,134.1l212.6-11.5C2446.7,3970,2607.6,3947,2688.1,3926z M6218.7,3617.5c645.6-126.4,1187.7-419.5,1624.5-877.4c425.3-448.3,647.5-965.5,678.1-1576.6l13.4-243.3l155.2-7.7c260.5-13.4,465.5-132.2,634.1-369.7C9492.7,309.1,9575,67.7,9594.2-233c30.7-496.2-220.3-862.1-664.7-967.4c-107.3-24.9-544.1-28.7-3394.6-28.7c-3660.9,0-3427.2-9.6-3728,137.9C854.8-623.8,1015.7,960.5,2054,1320.6c105.4,36.4,176.3,44.1,452.1,51.7l327.6,7.7l23,128.3c13.4,69,51.7,214.6,88.1,321.9c325.7,975.1,1228,1689.6,2310.3,1825.7C5485,3684.6,5979.3,3665.4,6218.7,3617.5z"/>
    <path d="M3435.2-1865.2c-32.6-55.6-308.4-536.4-613-1069c-544.1-948.3-553.6-967.4-513.4-996.2c21.1-15.3,80.5-51.7,130.3-80.5l91.9-53.6l613,1072.8l611.1,1070.9l-65.1,40.2c-36.4,21.1-95.8,55.5-132.2,78.5l-65.1,38.3L3435.2-1865.2z"/>
    <path d="M7113.4-1865.2c-32.5-55.6-308.4-536.4-613-1069c-544.1-948.3-553.6-967.4-513.4-996.2c21.1-15.3,80.5-51.7,130.3-80.5l92-53.6l613,1072.8l611.1,1070.9l-65.1,40.2c-36.4,21.1-95.8,55.5-132.2,78.5l-65.1,38.3L7113.4-1865.2z"/>
    <path d="M4592.3-2409.2c-147.5-344.8-270.1-632.2-273.9-641.8c-3.8-9.6,122.6-19.2,281.6-21.1l287.4-5.7l-191.6-335.2c-105.4-183.9-212.6-371.7-239.5-415.7l-46-80.5l128.4-76.6c72.8-42.1,136-69,141.8-63.2c17.2,19.2,705,1220.3,718.4,1256.7c9.6,24.9-30.6,30.6-304.6,34.5l-314.2,5.7l178.2,417.6c99.6,231.8,180.1,423.4,180.1,427.2c0,7.7-182,92-243.3,111.1C4864.3-1786.7,4826-1865.2,4592.3-2409.2z"/>
  </g>
</svg>