<?xml version="1.0" encoding="utf-8"?>
<!DOCTYPE svg PUBLIC "-//W3C//DTD SVG 1.1//EN" "http://www.w3.org/Graphics/SVG/1.1/DTD/svg11.dtd">
<svg version="1.1"
  xmlns="http://www.w3.org/2000/svg"
  xmlns:xlink="http://www.w3.org/1999/xlink" x="0px" y="0px" viewBox="0 0 1000 1000" enable-background="new 0 0 1000 1000" xml:space="preserve">
  <g transform="translate(0.000000,511.000000) scale(0.100000,-0.100000)">
    <path d="M3318.4,3174.3v-459.8h153.3h153.3v459.8v459.8h-153.3h-153.3V3174.3z"/>
    <path d="M707.3,3024.9c-49.8-49.8-90-99.6-90-109.2c0-11.5,203.1-222.2,450.2-469.3l450.2-450.2l109.2,111.1l111.1,109.2l-450.2,450.2c-247.1,247.1-459.8,450.2-469.3,450.2C806.9,3116.9,757.1,3074.7,707.3,3024.9z"/>
    <path d="M3126.8,2379.3c-434.9-69-846.7-281.6-1168.6-603.4c-431-431-660.9-1024.9-626.4-1618.8c13.4-220.3,49.8-371.7,128.4-540.2l55.6-120.7l-126.4-118.8c-465.5-448.3-641.8-1174.3-434.9-1795c132.2-396.5,454-735.6,839.1-885c308.4-118.8,132.2-114.9,3804.6-109.2l3342.9,5.7L9075-3362c400.4,134.1,655.2,392.7,779.7,789.3c59.4,195.4,61.3,584.3,0,808.4c-101.5,375.5-266.3,651.3-517.2,862.1c-105.4,90-319.9,199.2-425.3,216.5c-72.8,11.5-74.7,15.3-86.2,101.5c-65.1,530.7-195.4,885.1-473.2,1300.8c-168.6,252.9-482.8,572.8-743.3,756.7c-381.2,272-898.5,486.6-1375.5,574.7c-183.9,34.5-295,40.2-626.4,40.2c-358.2,0-427.2-5.7-632.2-49.8l-228-49.8l-97.7,63.2C4205.3,2346.7,3661.3,2463.6,3126.8,2379.3z M3780.1,2072.8c180.1-30.7,319.9-74.7,484.7-153.3l111.1-53.6l-226.1-116.9c-580.5-300.8-1007.7-710.7-1302.7-1251c-90-164.7-226-505.7-247.1-620.7l-13.4-69L2362.4-203c-182-7.7-256.7-21.1-404.2-69c-201.1-69-187.7-72.8-251,93.9c-120.7,314.2-90,775.9,76.6,1166.7c168.6,394.6,540.2,775.9,923.4,946.3C3055.9,2088.1,3421.8,2136,3780.1,2072.8z M6218.7,1737.5c645.6-126.4,1187.7-419.5,1624.5-877.4c425.3-448.3,647.5-965.5,678.1-1576.6l13.4-243.3l155.2-7.7c260.5-13.4,465.5-132.2,634.1-369.7c168.6-233.7,250.9-475.1,270.1-775.9c30.7-496.2-220.3-862.1-664.7-967.4c-107.3-24.9-544.1-28.7-3394.6-28.7c-3660.9,0-3427.2-9.6-3728,137.9C854.8-2503.8,1015.7-919.5,2054-559.4c105.4,36.4,176.3,44.1,452.1,51.7l327.6,7.7l23,128.4c13.4,69,51.7,214.5,88.1,321.8c325.7,975.1,1228,1689.6,2310.3,1825.7C5485,1804.6,5979.3,1785.4,6218.7,1737.5z"/>
    <path d="M100,262.5V109.2h459.8h459.8v153.3v153.3H559.8H100V262.5z"/>
  </g>
</svg>