<?xml version="1.0" encoding="utf-8"?>
<!DOCTYPE svg PUBLIC "-//W3C//DTD SVG 1.1//EN" "http://www.w3.org/Graphics/SVG/1.1/DTD/svg11.dtd">
<svg version="1.1"
  xmlns="http://www.w3.org/2000/svg"
  xmlns:xlink="http://www.w3.org/1999/xlink" x="0px" y="0px" viewBox="0 0 1000 1000" enable-background="new 0 0 1000 1000" xml:space="preserve">
  <g transform="translate(0.000000,511.000000) scale(0.100000,-0.100000)">
    <path d="M2006.1,3009.1c-107.3-13.4-362.1-63.2-369.7-70.9c-3.8-5.7,19.2-47.9,53.6-95.8c291.2-425.3,323.8-931,84.3-1362.1c-88.1-159-339.1-394.6-505.7-475.1c-220.3-107.3-352.5-134.1-613-122.6c-180.1,7.7-251,19.2-387,67.1L100,1009.1V871.2c1.9-306.5,74.7-622.6,212.6-911.9c120.7-254.8,233.7-411.9,438.7-614.9L918-820.4l-24.9-141.8c-155.2-881.2,356.3-1651.3,1199.2-1808.4c145.6-28.7,513.4-30.6,3505.7-26.8l3342.9,5.7l134.1,44.1c400.4,134.1,655.2,392.7,779.7,789.3c59.4,195.4,61.3,584.3,0,808.4c-101.5,375.5-266.3,651.3-517.2,862.1c-105.4,90-319.9,199.2-425.3,216.5c-72.8,11.5-74.7,15.3-86.2,101.5c-65.1,530.7-195.4,885.1-473.2,1300.8c-168.6,252.9-482.8,572.8-743.3,756.7c-749,532.6-1752.9,743.3-2659,559.4c-241.4-47.9-590-172.4-821.8-295l-218.4-113l-137.9,139.8c-329.5,333.3-745.2,546-1201.1,615C2402.7,3020.6,2140.2,3026.3,2006.1,3009.1z M2688.1,2660.4c321.8-82.4,634.1-260.5,850.6-478.9l114.9-116.9l-124.5-109.2c-275.9-241.4-505.7-523-668.6-819.9C2760.9,957.4,2623,614.5,2600,491.8l-13.4-69l-222.2-11.5c-237.6-11.5-411.9-53.7-588.1-143.7c-293.1-147.5-553.6-406.1-699.2-693.5l-44.1-84.3L910.3-379.8C670.9-126.9,515.7,170,437.2,532.1l-9.6,47.9h300.8c287.4,1.9,308.4,3.8,467.4,61.3c816.1,287.4,1235.6,1137.9,965.5,1946.3l-44.1,134.1l212.6-11.5C2446.7,2704.5,2607.6,2681.5,2688.1,2660.4z M6218.7,2352c645.6-126.5,1187.7-419.6,1624.5-877.4c425.3-448.3,647.5-965.5,678.1-1576.6l13.4-243.3L8690-353c260.5-13.4,465.5-132.2,634.1-369.7c168.6-233.7,250.9-475.1,270.1-775.9c30.7-496.2-220.3-862.1-664.7-967.4c-107.3-24.9-544.1-28.7-3394.6-28.7c-3660.9,0-3427.2-9.6-3728,137.9C854.8-1889.4,1015.7-305.1,2054,55.1c105.4,36.4,176.3,44.1,452.1,51.7l327.6,7.7l23,128.3c13.4,69,51.7,214.6,88.1,321.9c325.7,975.1,1228,1689.6,2310.3,1825.7C5485,2419,5979.3,2399.9,6218.7,2352z"/>
  </g>
</svg>