<?xml version="1.0" encoding="utf-8"?>
<!DOCTYPE svg PUBLIC "-//W3C//DTD SVG 1.1//EN" "http://www.w3.org/Graphics/SVG/1.1/DTD/svg11.dtd">
<svg version="1.1"
  xmlns="http://www.w3.org/2000/svg"
  xmlns:xlink="http://www.w3.org/1999/xlink" x="0px" y="0px" viewBox="0 0 1000 1000" enable-background="new 0 0 1000 1000" xml:space="preserve">
  <g transform="translate(0.000000,512.000000) scale(0.100000,-0.100000)">
    <path d="M4617.1,5009.3c-204.9-19.2-522.8-70.8-712.4-114.9c-113-26.8-214.5-44-226-36.4c-9.6,5.7-19.2,3.8-19.2-7.7c0-9.6-49.8-32.6-109.2-49.8c-354.3-103.4-859.9-342.8-1221.8-580.3c-607.1-396.4-1145.2-949.9-1514.9-1555.1C-61.6,1230.8-136.3-567.5,614.5-2065.1c296.8-593.7,737.3-1151,1244.8-1574.2c465.4-390.7,1160.6-771.8,1691-925c59.4-17.2,109.2-40.2,109.2-49.8c0-11.5,9.6-13.4,19.2-7.7c11.5,7.7,113-9.6,226-36.4c388.8-91.9,612.8-114.9,1085.9-116.8c446.2,0,610.9,15.3,976.7,88.1c1620.2,323.7,2995.3,1480.4,3602.3,3033.5C9772.6-1130.5,9876-628.8,9897-44.7c46,1325.3-446.2,2602.7-1373.1,3560.2c-421.3,434.7-833.1,735.4-1369.3,997.8c-482.6,237.5-926.9,377.3-1465.1,459.6C5496.1,5001.7,4802.8,5026.6,4617.1,5009.3z M5641.6,4668.4c994-147.5,1907.5-605.2,2606.5-1306.1C8972,2634.6,9416.3,1728.7,9560,692.7c15.3-101.5,26.8-354.3,26.8-574.5c0-413.7-21.1-612.8-97.7-976.7c-141.7-660.7-482.6-1371.2-919.3-1913.2c-716.3-888.6-1783-1493.8-2928.2-1660.4c-285.4-40.2-748.8-55.5-1015-28.7c-396.4,38.3-388.8,24.9-80.4,181.9c731.6,369.6,1302.3,877.1,1765.7,1572.3c1097.4,1643.2,1108.9,3947.1,26.8,5611.3c-453.9,699-1051.4,1237.2-1792.6,1612.5l-271.9,136l80.4,15.3C4655.4,4718.2,5300.8,4718.2,5641.6,4668.4z M3870.2,4475c76.6-26.8,145.6-51.7,149.4-57.5c5.8-5.7-139.8-9.6-323.7-7.7l-333.2,1.9l153.2,53.6c84.3,30.6,166.6,55.5,183.9,55.5C3715,4522.9,3793.6,4501.8,3870.2,4475z M4881.3,3969.4c197.3-134.1,452-337.1,538.2-430.9l46-49.8H3676.7l-1788.7,1.9l95.8,88.1c136,124.5,371.5,302.6,561.1,421.3l162.8,101.5h990.1H4686L4881.3,3969.4z M5825.5,3101.9c36.4-46,132.1-181.9,214.5-302.6l149.4-220.2l-1275.5-5.7c-702.9-1.9-1844.3-1.9-2537.5,0l-1262.1,5.7l118.7,166.6c67,91.9,170.5,227.9,229.8,302.6l111.1,134.1h2093.2h2093.2L5825.5,3101.9z M6434.5,2081.1c78.5-176.2,155.1-383,155.1-415.6c0-7.7-1331-15.3-2958.9-15.3c-1627.9,0-2958.9,3.8-2958.9,9.6c0,32.6,199.2,490.3,245.1,561.1l26.8,42.1h2706.1H6356L6434.5,2081.1z M6702.6,1272.9c17.2-63.2,59.4-291.1,90-478.8l9.6-63.2H3623.1H444l11.5,72.8c13.4,93.8,103.4,507.5,114.9,526.7c3.8,7.7,1380.8,13.4,3060.4,13.4h3052.7L6702.6,1272.9z M6827.1,393.9c17.2-44,13.4-530.5-3.8-559.2c-13.4-19.2-668.4-23-3213.6-19.2l-3196.3,5.7L407.6,99c-1.9,151.3,0,287.3,3.8,300.7c7.7,21.1,607.1,24.9,3207.8,24.9C6516.9,424.5,6815.6,422.6,6827.1,393.9z M6792.6-556c-30.6-189.6-72.8-417.5-90-478.8l-19.2-72.8H3630.8c-1679.6,0-3056.5,5.7-3060.4,15.3c-11.5,17.2-101.5,430.9-114.9,526.7L444-494.7h3179.1h3179.1L6792.6-556z M6589.6-1429.3c0-32.6-76.6-239.4-155.1-415.6l-78.5-181.9l-2711.8,3.8l-2711.8,5.7l-61.3,124.5c-59.4,114.9-199.2,448.1-199.2,469.2c0,5.7,1331,9.6,2958.9,9.6C5258.6-1414,6589.6-1421.6,6589.6-1429.3z M6176-2356.2c-51.7-88.1-258.5-388.8-329.4-480.7l-86.2-109.2l-2097.1,3.8l-2099,5.7l-130.2,160.9c-70.9,90-174.3,224.1-227.9,302.6l-95.8,139.8h2539.4C5676.1-2333.2,6187.5-2339,6176-2356.2z M5419.5-3302.3c-86.2-93.8-340.9-296.8-538.2-430.9L4686-3865.3h-988.2h-990.1l-162.8,101.5c-189.6,118.7-425.2,296.8-561.1,421.3l-95.8,88.1l1788.7,1.9h1788.7L5419.5-3302.3z M4023.4-4179.4c0-5.7-70.9-32.5-159-61.3l-159-51.7l-172.4,59.4l-170.4,57.5l331.3,1.9C3874-4171.7,4023.4-4175.6,4023.4-4179.4z"/>
  </g>
</svg>