<?xml version="1.0" encoding="utf-8"?>
<!DOCTYPE svg PUBLIC "-//W3C//DTD SVG 1.1//EN" "http://www.w3.org/Graphics/SVG/1.1/DTD/svg11.dtd">
<svg version="1.1"
  xmlns="http://www.w3.org/2000/svg"
  xmlns:xlink="http://www.w3.org/1999/xlink" x="0px" y="0px" viewBox="0 0 1000 1000" enable-background="new 0 0 1000 1000" xml:space="preserve">
  <g transform="translate(0.000000,511.000000) scale(0.100000,-0.100000)">
    <path d="M2006.1,4387.8c-107.3-13.4-362.1-63.2-369.7-70.9c-3.8-5.8,19.2-47.9,53.6-95.8c291.2-425.3,323.8-931,84.3-1362.1c-88.1-159-339.1-394.6-505.7-475.1c-220.3-107.3-352.5-134.1-613-122.6c-180.1,7.7-251,19.2-387,67.1L100,2387.8v-137.9c1.9-306.5,74.7-622.6,212.6-911.9C433.3,1083.2,546.4,926.1,751.3,723L918,558.3l-24.9-141.7c-130.3-743.3,233.7-1454,877.4-1718.4c139.8-55.6,427.2-120.7,547.9-120.7h80.5v153.3v153.3h-67c-136,0-367.8,61.3-524.9,137.9C854.8-510.7,1015.7,1073.6,2054,1433.7c105.4,36.4,176.3,44.1,452.1,51.7l327.6,7.7l23,128.3c13.4,69,51.7,214.6,88.1,321.9C3328,3090.8,4473.5,3839.9,5760.9,3782.4c816.1-36.4,1540.2-360.2,2082.4-929.1c425.3-448.3,647.5-965.5,678.1-1576.6l13.4-243.3l155.2-7.7c260.5-13.4,465.5-132.2,634.1-369.7c362.1-507.7,365.9-1197.3,9.6-1530.7c-145.6-137.9-398.5-239.5-588.1-241.4h-63.2v-155.2v-157.1l132.2,13.4c507.7,46,888.9,352.5,1040.2,835.3c59.4,195.4,61.3,584.3,0,808.4c-101.5,375.5-266.3,651.3-517.2,862.1c-105.4,90-319.9,199.2-425.3,216.5c-72.8,11.5-74.7,15.3-86.2,101.5c-65.1,530.6-195.4,885-473.2,1300.8c-168.6,252.9-482.8,572.8-743.3,756.7c-749,532.6-1752.9,743.3-2659,559.4c-241.4-47.9-590-172.4-821.8-295l-218.4-113l-137.9,139.8c-329.5,333.3-745.2,546-1201.1,615C2402.7,4399.2,2140.2,4405,2006.1,4387.8z M2688.1,4039.1c321.8-82.4,634.1-260.5,850.6-478.9l114.9-116.8l-124.5-109.2c-275.9-241.4-505.7-523-668.6-819.9c-99.6-178.2-237.5-521.1-260.5-643.7l-13.4-69l-222.2-11.5c-237.6-11.5-411.9-53.7-588.1-143.7c-293.1-147.5-553.6-406.1-699.2-693.5l-44.1-84.3L910.3,998.9c-239.5,252.9-394.6,549.8-473.2,911.9l-9.6,47.9h300.8c287.4,1.9,308.4,3.8,467.4,61.3c816.1,287.4,1235.6,1137.9,965.5,1946.3l-44.1,134.1l212.6-11.5C2446.7,4083.2,2607.6,4060.2,2688.1,4039.1z"/>
    <path d="M6768.5-227.2c-323.7-86.2-576.6-344.8-662.8-672.4c-15.3-59.4-28.7-134.1-28.7-162.8v-53.6h151.3h149.4l11.5,86.2c26.8,193.5,164.8,379.3,348.7,469.3c78.5,38.3,124.5,47.9,258.6,47.9c191.6,0,306.5-46,431-172.4c124.5-122.6,170.5-239.5,170.5-431c1.9-149.4-3.8-172.4-63.2-283.5c-72.8-134.1-132.2-191.6-277.8-268.2l-97.7-51.7l-3222.2-5.7L713-1729.1v-153.3v-153.3h3195.4c2806.5,0,3208.8,3.8,3308.4,28.7c490.4,128.4,795,630.3,670.5,1107.3C7759-403.4,7249.4-96.9,6768.5-227.2z"/>
    <path d="M406.5-2495.4v-153.3l2381.2-3.8l2379.3-5.7l95.8-47.9c122.6-59.4,237.5-174.3,296.9-296.9c38.3-78.5,47.9-124.5,47.9-258.6c0-139.8-7.7-176.3-51.7-260.5c-76.6-145.6-134.1-205-268.2-277.8c-111.1-59.4-134.1-65.1-283.5-65.1c-134.1,0-180.1,9.6-258.6,47.9c-183.9,90-321.8,275.9-348.7,469.3l-11.5,86.2H4236h-151.3v-53.6c0-183.9,126.4-452.1,285.4-603.4c513.4-490.4,1344.8-251,1524.9,440.6c124.5,477-180.1,978.9-670.5,1107.3c-99.6,24.9-415.7,28.7-2465.5,28.7H406.5V-2495.4z"/>
  </g>
</svg>