<?xml version="1.0" encoding="utf-8"?>
<!DOCTYPE svg PUBLIC "-//W3C//DTD SVG 1.1//EN" "http://www.w3.org/Graphics/SVG/1.1/DTD/svg11.dtd">
<svg version="1.1"
  xmlns="http://www.w3.org/2000/svg"
  xmlns:xlink="http://www.w3.org/1999/xlink" x="0px" y="0px" viewBox="0 0 1000 1000" enable-background="new 0 0 1000 1000" xml:space="preserve">
  <g transform="translate(0.000000,511.000000) scale(0.100000,-0.100000)">
    <path d="M4846.8,4835.5c-718.3-91.9-1404-394.6-1926.9-850.4c-302.6-266.3-578.5-632.1-752.8-1001.8c-88.1-187.7-193.5-484.6-193.5-545.9c0-21.1-34.5-26.8-162.8-26.8c-907.9,0-1658.7-771.9-1708.5-1752.6c-46-934.7,605.3-1687.5,1528.5-1764.1l151.3-13.4v153.2V-813l-128.3,11.5c-342.9,32.6-609.1,157.1-850.4,396.5c-132.2,130.2-180,195.4-243.3,325.6C439.4,167.7,412.6,288.4,414.5,591c1.9,222.2,9.6,283.5,53.6,427.1c137.9,455.9,434.8,808.3,831.3,984.5c170.5,74.7,331.4,101.5,637.8,101.5h279.6l23,130.2c13.4,70.9,53.6,218.4,90,325.6c229.8,691.5,735.5,1268,1423.1,1618.5c348.6,178.1,651.2,277.7,1045.8,340.9c229.8,38.3,837,32.6,1063-9.6c681.9-126.4,1210.5-396.5,1666.4-854.3c526.7-524.8,806.4-1160.8,837-1909.7l11.5-254.7h126.4c455.9,0,858.1-325.6,1026.7-831.3c99.6-300.7,80.4-626.3-51.7-896.4c-72.8-145.6-287.3-365.8-431-442.5c-109.2-57.5-360.1-128.3-459.7-128.3h-63.2v-155.2v-157.1l130.2,11.5c191.5,19.2,339,61.3,521,151.3c229.9,114.9,455.9,340.9,570.8,570.8c101.5,203,137.9,342.9,151.3,574.6c24.9,440.5-153.2,902.2-471.2,1220.1c-191.5,191.5-450.1,333.3-657,362l-90,11.5l-11.5,109.2c-86.2,812.1-377.3,1442.3-919.4,1984.4c-503.7,501.8-1120.5,814.1-1857.9,940.5C5651.2,4856.6,5097.7,4868.1,4846.8,4835.5z"/>
    <path d="M6764.1-378.2c-323.7-86.2-576.5-344.8-662.7-672.3c-15.3-59.4-28.7-134.1-28.7-162.8v-53.6h151.3h149.4l11.5,86.2c26.8,193.4,164.7,379.2,348.6,469.3c78.5,38.3,124.5,47.9,258.6,47.9c191.5,0,306.5-46,431-172.4c124.5-122.6,170.5-239.4,170.5-431c1.9-149.4-3.8-172.4-63.2-283.5c-72.8-134.1-132.1-191.5-277.7-268.2l-97.7-51.7l-3221.7-5.7l-3223.6-3.8v-153.2v-153.2h3194.9c2806.1,0,3208.3,3.8,3307.9,28.7c490.3,128.3,794.9,630.2,670.4,1107.1C7754.3-554.4,7244.9-247.9,6764.1-378.2z"/>
    <path d="M403-2952.5v-153.2l2380.9-3.8l2378.9-5.7l95.8-47.9c122.6-59.4,237.5-174.3,296.9-296.9c38.3-78.5,47.9-124.5,47.9-258.6c0-139.8-7.6-176.2-51.7-260.5c-76.6-145.6-134.1-205-268.2-277.7c-111.1-59.4-134.1-65.1-283.5-65.1c-134.1,0-180,9.6-258.6,47.9c-183.9,90-321.8,275.8-348.6,469.3l-11.5,86.2h-149.4h-151.3v-53.6c0-183.9,126.4-452,285.4-603.3c513.3-490.4,1344.6-250.9,1524.7,440.5c124.5,476.9-180,978.8-670.4,1107.1c-99.6,24.9-415.6,28.7-2465.1,28.7H403V-2952.5z"/>
  </g>
</svg>