<?xml version="1.0" encoding="utf-8"?>
<!DOCTYPE svg PUBLIC "-//W3C//DTD SVG 1.1//EN" "http://www.w3.org/Graphics/SVG/1.1/DTD/svg11.dtd">
<svg version="1.1"
  xmlns="http://www.w3.org/2000/svg"
  xmlns:xlink="http://www.w3.org/1999/xlink" x="0px" y="0px" viewBox="0 0 1000 1000" enable-background="new 0 0 1000 1000" xml:space="preserve">
  <g transform="translate(0.000000,512.000000) scale(0.100000,-0.100000)">
    <path d="M3318.4,4562.6v-459.8h153.3h153.3v459.8v459.8h-153.3h-153.3V4562.6z"/>
    <path d="M707.3,4413.2c-49.8-49.8-90-99.6-90-109.2c0-11.5,203.1-222.2,450.2-469.3l450.2-450.2l109.2,111.1l111.1,109.2L1287.7,4055c-247.1,247.1-459.8,450.2-469.3,450.2C806.9,4505.1,757.1,4463,707.3,4413.2z"/>
    <path d="M3126.8,3767.6c-434.9-69-846.7-281.6-1168.6-603.4c-431-431-660.9-1024.9-626.4-1618.8c13.4-220.3,49.8-371.6,128.4-540.2l55.6-120.7l-116.9-109.2C925.7,325.1,745.6-404.8,954.4-1029.3c128.3-387,444.4-724.1,816.1-877.4c139.8-55.5,427.2-120.7,547.9-120.7h80.5v153.3v153.3h-67c-136,0-367.8,61.3-524.9,137.9C854.8-1115.5,1015.7,468.8,2054,828.9c105.4,36.4,176.3,44.1,452.1,51.7l327.6,7.7l23,128.3c13.4,69,51.7,214.6,88.1,321.8C3328,2486,4473.5,3235,5760.9,3177.6c816.1-36.4,1540.2-360.2,2082.4-929.1c425.3-448.3,647.5-965.5,678.1-1576.6l13.4-243.3l155.2-7.7c260.5-13.4,465.5-132.2,634.1-369.7c362.1-507.7,365.9-1197.3,9.6-1530.7c-145.6-137.9-398.5-239.5-588.1-241.4h-63.2V-1876v-157.1l132.2,13.4c507.7,46,888.9,352.5,1040.2,835.2c59.4,195.4,61.3,584.3,0,808.4C9753.2-0.6,9588.5,275.3,9337.5,486c-105.4,90-319.9,199.2-425.3,216.5c-72.8,11.5-74.7,15.3-86.2,101.5c-65.1,530.7-195.4,885.1-473.2,1300.8c-168.6,252.9-482.8,572.8-743.3,756.7c-381.2,272-898.5,486.6-1375.5,574.7c-183.9,34.5-295,40.2-626.4,40.2c-358.2,0-427.2-5.7-632.2-49.8l-228-49.8l-97.7,63.2C4205.3,3735,3661.3,3851.9,3126.8,3767.6z M3780.1,3461.1c180.1-30.7,319.9-74.7,484.7-153.3l111.1-53.6l-226.1-116.9c-580.5-300.8-1007.7-710.7-1302.7-1251c-90-164.7-226-505.7-247.1-620.7l-13.4-69l-224.1-11.5c-182-7.7-256.7-21.1-404.2-69c-201.1-69-187.7-72.8-251,93.9c-120.7,314.2-90,775.9,76.6,1166.7c168.6,394.6,540.2,775.9,923.4,946.4C3055.9,3476.4,3421.8,3524.3,3780.1,3461.1z"/>
    <path d="M100,1650.8v-153.3h459.8h459.8v153.3V1804H559.8H100V1650.8z"/>
    <path d="M6768.5-832c-323.7-86.2-576.6-344.8-662.8-672.4c-15.3-59.4-28.7-134.1-28.7-162.8v-53.6h151.3h149.4l11.5,86.2c26.8,193.5,164.8,379.3,348.7,469.3c78.5,38.3,124.5,47.9,258.6,47.9c191.6,0,306.5-46,431-172.4c124.5-122.6,170.5-239.5,170.5-431c1.9-149.4-3.8-172.4-63.2-283.5c-72.8-134.1-132.2-191.6-277.8-268.2l-97.7-51.7l-3222.2-5.7L713-2333.9v-153.2v-153.3h3195.4c2806.5,0,3208.8,3.8,3308.4,28.7c490.4,128.4,795,630.3,670.5,1107.3C7759-1008.2,7249.4-701.7,6768.5-832z"/>
    <path d="M406.5-3100.2v-153.3l2381.2-3.8L5167-3263l95.8-47.9c122.6-59.4,237.5-174.3,296.9-296.9c38.3-78.5,47.9-124.5,47.9-258.6c0-139.8-7.7-176.3-51.7-260.5c-76.6-145.6-134.1-205-268.2-277.8c-111.1-59.4-134.1-65.1-283.5-65.1c-134.1,0-180.1,9.6-258.6,47.9c-183.9,90-321.8,275.9-348.7,469.4l-11.5,86.2H4236h-151.3v-53.6c0-183.9,126.4-452.1,285.4-603.4c513.4-490.4,1344.8-251,1524.9,440.6c124.5,477-180.1,978.9-670.5,1107.3c-99.6,24.9-415.7,28.7-2465.5,28.7H406.5V-3100.2z"/>
  </g>
</svg>