<?xml version="1.0" encoding="utf-8"?>
<!DOCTYPE svg PUBLIC "-//W3C//DTD SVG 1.1//EN" "http://www.w3.org/Graphics/SVG/1.1/DTD/svg11.dtd">
<svg version="1.1" xmlns="http://www.w3.org/2000/svg" xmlns:xlink="http://www.w3.org/1999/xlink" x="0px" y="0px"
  viewBox="0 0 1000 1000" enable-background="new 0 0 1000 1000" xml:space="preserve">
  <path
    d="M499.8,189.3c46,60.8,148.1,228.4,198,302.5c125.5,209.7-28.1,396-191,402.3c-201.1-4.7-301.7-225.3-227.6-372.6c46.8-88.9,156.7-257.3,220.6-332.9V189.3z M499.8,10c-26.5,42.9-49.1,95.9-74.8,139.5C348.5,279.7,262,391.2,187.2,529.2C88.2,765.4,279.9,993.8,506,990c244.8-3.9,399.9-255.7,305.6-460.7C752.4,401.4,647.9,282.1,569.2,148L499.8,10.8V10z" />
</svg>