<?xml version="1.0" encoding="utf-8"?>
<!DOCTYPE svg PUBLIC "-//W3C//DTD SVG 1.1//EN" "http://www.w3.org/Graphics/SVG/1.1/DTD/svg11.dtd">
<svg version="1.1" xmlns="http://www.w3.org/2000/svg" xmlns:xlink="http://www.w3.org/1999/xlink" x="0px" y="0px"
  viewBox="0 0 1000 1000" enable-background="new 0 0 1000 1000" xml:space="preserve">
  <g transform="matrix(1 0 0 -1 0 1638)">
    <path
      d="M500.3,957.4c-24.9,0-48.3,4.7-70.3,14.1c-22,9.4-41.1,22.3-57.4,38.8c-16.3,16.5-29.2,35.6-38.8,57.4c-9.6,21.8-14.4,45.2-14.4,70v309.9c0,24.9,4.8,48.2,14.4,70c9.6,21.8,22.5,41,38.8,57.4s35.4,29.4,57.4,38.8s45.4,14.1,70.3,14.1c24.9,0,48.2-4.7,70-14.1s41-22.3,57.4-38.8s29.4-35.6,38.8-57.4c9.4-21.8,14.1-45.2,14.1-70v-309.9c0-24.9-4.7-48.2-14.1-70c-9.4-21.8-22.3-41-38.8-57.4c-16.5-16.5-35.6-29.4-57.4-38.8C548.5,962.1,525.1,957.4,500.3,957.4L500.3,957.4z M500.3,1576.6c-17.8,0-34.5-3.4-50.1-10.1c-15.6-6.7-29.3-16-41.1-27.7c-11.8-11.8-21-25.4-27.7-41.1c-6.7-15.6-10.1-32.3-10.1-50.1v-309.9c0-17.8,3.4-34.5,10.1-50.1c6.7-15.6,16-29.2,27.7-40.8c11.8-11.6,25.4-20.8,41.1-27.7c15.6-6.9,32.3-10.3,50.1-10.3s34.5,3.4,50.1,10.3c15.6,6.9,29.3,16.1,41.1,27.7c11.8,11.6,21,25.2,27.7,40.8c6.7,15.6,10.1,32.3,10.1,50.1v309.9c0,17.8-3.4,34.5-10.1,50.1s-16,29.3-27.7,41.1c-11.8,11.8-25.4,21-41.1,27.7C534.8,1573.2,518.1,1576.6,500.3,1576.6L500.3,1576.6z M835.3,1137.7c0,7.4-2.5,13.6-7.6,18.6c-5,5-11.1,7.6-18.1,7.6s-13.1-2.5-18.1-7.6c-5-5-7.6-11.3-7.6-18.6c0-39-7.5-75.7-22.4-110.1c-14.9-34.4-35.3-64.5-61-90.2c-25.7-25.7-55.8-46-90.2-61s-71.1-22.4-110.1-22.4c-39.3,0-76.2,7.5-110.6,22.4c-34.4,14.9-64.5,35.3-90.2,61c-25.7,25.7-45.9,55.8-60.7,90.2c-14.8,34.4-22.2,71.1-22.2,110.1c0,7.4-2.5,13.6-7.6,18.6c-5,5-11.3,7.6-18.6,7.6c-7.1,0-13.1-2.5-18.1-7.6c-5-5-7.6-11.3-7.6-18.6c0-44,8.1-85.6,24.2-124.7s38.1-73.6,66-103.5c27.9-29.9,60.6-54.2,98.3-72.8c37.6-18.6,78.1-29.6,121.4-33V699.4H397c-7.1,0-13.1-2.5-18.1-7.6c-5-5-7.6-11.1-7.6-18.1c0-7.1,2.5-13.1,7.6-18.1c5-5,11.1-7.6,18.1-7.6h206.6c7.1,0,13.1,2.5,18.1,7.6c5,5,7.6,11.1,7.6,18.1c0,7.1-2.5,13.1-7.6,18.1c-5,5-11.1,7.6-18.1,7.6h-77.6v104.3c43.3,3.4,83.8,14.4,121.4,33c37.6,18.6,70.4,42.9,98.3,72.8c27.9,29.9,49.8,64.4,65.8,103.5S835.3,1093.7,835.3,1137.7L835.3,1137.7z" />
  </g>
</svg>